<?xml version="1.0" encoding="utf-8"?>
<!-- Generator: Adobe Illustrator 27.5.0, SVG Export Plug-In . SVG Version: 6.00 Build 0)  -->
<svg version="1.1" xmlns="http://www.w3.org/2000/svg" xmlns:xlink="http://www.w3.org/1999/xlink" x="0px" y="0px"
	 viewBox="0 0 650 500" style="enable-background:new 0 0 650 500;" xml:space="preserve">
<g id="BACKGROUND">
	<g>
		<g>
			<rect style="fill:#FFFFFF;" width="650" height="500"/>
		</g>
		<g style="opacity:0.1;">
			<path style="fill:#7798D9;" d="M97.228,79.447c21.924-12.084,47.753-14.528,72.142-17.617
				c25.992-3.292,52.864-6.913,75.844-20.393C261.384,31.952,275.532,17.8,281.577,0H0c0,0,0,304.51,0,304.554
				c0,3.623,9.502,11.195,12.124,13.367c18.937,15.687,48.446,15.099,69.321,3.786c7.178-3.89,13.807-9.279,17.614-16.501
				c4.675-8.869,3.405-19.344-1.461-27.841c-3.058-5.34-7.461-9.852-12.482-13.377c-9.85-6.914-27.501-10.103-27.576-25.104
				c-0.111-22.465,21.574-34.322,38.129-44.217c6.714-4.013,13.185-9.69,14.771-17.349c1.783-8.611-3.248-16.219-9.027-22.063
				c-14.579-14.742-42.018-25.003-29.554-50.946C77.013,93.582,86.974,85.098,97.228,79.447z"/>
			<path style="fill:#7798D9;" d="M636.919,111.803c-16.175,0.705-32.595,4.042-46.707,12.275
				c-12.3,7.176-22.121,17.905-29.06,30.273c-15.515,27.651-16.21,60.227-9.711,90.591c3.726,17.408,9.566,34.281,15.886,50.896
				c6.244,16.414,13.253,32.699,16.851,49.962c3.219,15.442,3.568,32.008-1.987,46.975c-5.122,13.798-15.313,24.667-27.37,32.805
				c-12.878,8.692-28.085,15.517-43.433,18.186c-7.937,1.38-16.087,1.532-23.991-0.148c-7.76-1.649-15.035-5.018-22.006-8.718
				c-14.752-7.83-29.734-18.115-47.137-17.854c-8.007,0.12-15.194,3.063-21.612,7.71c-5.88,4.257-10.984,9.465-16.585,14.064
				c-5.391,4.427-11.24,8.082-17.91,10.244c-7.226,2.343-14.907,3.033-22.469,2.746c-16.543-0.628-32.277-5.878-48.233-9.746
				c-8.886-2.154-17.94-3.9-27.112-4.017c-7.782-0.099-16.07,0.711-22.92,4.712c-5.843,3.413-10.308,9.668-8.005,16.655
				c2.116,6.42,8.827,10.411,14.871,12.499c6.345,2.192,13.253,2.516,19.897,2.989c6.677,0.475,13.393,0.838,19.984,2.076
				c12.441,2.338,23.951,9.042,27.646,21.871c0.11,0.381,0.189,0.767,0.285,1.151H650V111.762
				C645.639,111.63,641.274,111.614,636.919,111.803z"/>
		</g>
	</g>
</g>
<g id="OBJECTS">
	<g>
		<g style="opacity:0.3;">
			<path style="fill:#CCCCCC;" d="M493.936,344.016l-119.167,69.173c-2.941,1.697-6.565,1.691-9.5-0.015L168.422,298.609
				c-6.296-3.661-6.282-12.76,0.027-16.401l120.45-69.954c2.941-1.697,6.565-1.691,9.5,0.015l194.921,123.174
				C498.499,338.352,498.167,341.423,493.936,344.016z"/>
		</g>
		<g>
			<path style="fill:#7798D9;" d="M496.198,333.676c0,0-5.779,0.569-7.732-0.471l-199.818-116.43
				c-2.796-1.614-6.242-1.609-9.033,0.013l-110.056,59.562c-7.695,5.36-6.075,16.586-0.077,20.048l196.548,113.477
				c2.796,1.614,6.242,1.609,9.033-0.013l119.891-69.673C497.782,338.413,496.898,335.431,496.198,333.676L496.198,333.676z"/>
		</g>
		<g>
			<path style="fill:#121726;" d="M284.697,70.689l2.928,135.973c-0.01,3.598,1.905,6.939,5.019,8.756l196.349,115.856
				c6.546,3.819,14.61-2.284,14.631-9.919l0.371-132.34c0.01-3.559-1.864-6.866-4.913-8.669L299.643,62.399
				C292.966,58.45,284.226,62.579,284.697,70.689z"/>
		</g>
		<g>
			<path style="fill:#1D2540;" d="M284.619,69.916l-0.393,138.486c-0.01,3.599,1.905,6.94,5.021,8.757l196.3,114.511
				c6.548,3.82,14.73-0.939,14.752-8.575l0.371-132.363c0.01-3.56-1.865-6.867-4.914-8.67L295.625,63.729
				C290.743,60.842,284.635,64.274,284.619,69.916z"/>
		</g>
		<g>
			<polygon style="fill:#2B448C;" points="292.093,70.92 291.68,206.57 492.171,322.482 492.575,188.203 			"/>
		</g>
		<g>
			<polygon style="fill:#3A5EA5;" points="296.091,78.946 295.695,202.175 488.173,313.456 488.561,191.543 			"/>
		</g>
		<g>
			<path style="fill:#2B448C;" d="M379.664,221.654c-12.841-7.414-23.196-25.349-23.154-40.104
				c0.042-14.73,10.464-20.67,23.305-13.256c12.819,7.401,23.196,25.349,23.154,40.08
				C402.927,223.128,392.483,229.056,379.664,221.654 M385.375,152.467l-11.013-6.358l-1.577,8.943
				c-3.616-1.147-6.998-1.465-10.037-1.017l-7.125-9.807l-7.812,4.427l4.945,11.099c-1.946,2.367-3.376,5.428-4.205,9.108
				l-8.566-3.163l-0.036,12.63l8.556,6.722c0.805,4.624,2.214,9.324,4.14,13.926l-4.992,5.337l7.761,13.442l7.157-1.562
				c3.026,3.951,6.399,7.532,10.01,10.557l1.521,10.731l11.013,6.358l1.555-8.955c3.616,1.147,6.998,1.465,10.058,1.029l7.125,9.807
				l7.812-4.451l-4.945-11.074c1.924-2.38,3.376-5.428,4.205-9.108l8.544,3.15l0.036-12.63l-8.534-6.71
				c-0.806-4.624-2.236-9.336-4.14-13.926l4.992-5.362l-7.761-13.418l-7.157,1.562c-3.048-3.963-6.42-7.544-10.031-10.569
				L385.375,152.467"/>
			<path style="fill:#2B448C;" d="M379.778,181.294c-6.582-3.8-11.912-0.738-11.933,6.8c-0.021,7.563,5.274,16.735,11.856,20.535
				c6.56,3.788,11.912,0.763,11.933-6.8C391.655,194.291,386.338,185.082,379.778,181.294"/>
		</g>
		<g>
			<g>
				<defs>
					<path id="SVGID_1_" d="M450.085,187.916l-83.137-47.999c-2.753-1.589-6.194,0.391-6.203,3.57l-0.238,83.847
						c-0.011,3.772,1.997,7.262,5.264,9.148l86.847,50.141c2.296,1.326,5.168-0.327,5.175-2.978l0.232-81.929
						C458.042,196.025,455.013,190.761,450.085,187.916z"/>
				</defs>
				<clipPath id="SVGID_00000149371856045395146550000014511907752090702754_">
					<use xlink:href="#SVGID_1_"  style="overflow:visible;"/>
				</clipPath>
				<g style="clip-path:url(#SVGID_00000149371856045395146550000014511907752090702754_);">
					<path style="fill:#1D2540;" d="M395.812,187.305c-0.547-0.403-1.028-1.445-1.34-2.035c-0.475-0.899-0.873-1.84-1.187-2.807
						c-0.515-1.587-0.75-3.486,0.292-4.789c0.183-0.229,0.416-0.438,0.703-0.495c0.217-0.043,0.442,0.006,0.652,0.075
						c0.336,0.11,0.655,0.272,0.943,0.478c0.354,0.253,0.449,0.549,0.816,0.19c0.541-0.528,1.05-1.087,1.597-1.61
						c3.197-3.058,7.463-5.403,12.006-4.404c0.219,0.048,0.437,0.104,0.653,0.166c0.692,0.201,1.109,0.515,1.519,1.095
						c0.386,0.547,0.748,1.035,1.457,1.139c0.966,0.143,1.939,0.372,2.876,0.643c1.838,0.53,3.683,1.375,4.837,2.964
						c0.806,1.109,0.644,2.469,0.463,3.765c0.083-0.596,1.516,0.054,1.702,0.186c0.96,0.678,1.833,2.015,2.183,3.13
						c0.379,1.206,0.129,2.156-0.21,3.345c-0.91,3.197-1.479,7.06-3.986,11.358c-1.318,2.259-4.316,5.598-4.677,5.334
						C417.113,205.032,395.942,187.401,395.812,187.305z"/>
					<path style="fill:#F9CAAA;" d="M407.433,209.008c-1.038,0.293-2.91,0.595-3.416,0.545c-11.004-1.076-9.355-12.952-8.991-19.597
						c0.13-2.37,0.059-5.395,1.925-7.169c0.212-0.201,0.45-0.385,0.727-0.478c0.782-0.261,1.588,0.254,2.271,0.716
						c1.501,1.015,3.128,1.894,4.881,2.383c1.798,0.501,3.497,0.377,5.328,0.354c1.049-0.013,2.426,0.42,2.837,1.483
						c0.51,1.321-1.546,3.099-0.363,4.313c0.736,0.755,1.542,0.933,1.868,2.083c0.21,0.739,0.155,1.494,0.147,2.25
						c-0.006,0.615,0.468,1.152,1.125,0.943c1.277-0.409,0.841-2.445,1.251-3.411c0.528-1.245,1.474-1.604,2.864-1.641
						c3.032-0.08,1.309,9.228-2.077,10.112c0,0-0.508,4.496-0.955,9.758c-0.17,1.997-4.68,1.591-6.377,1.243
						c-0.68-0.139-2.94-0.994-2.94-1.868C407.539,210.021,407.41,208.985,407.433,209.008z"/>
					<path style="fill:#7798D9;" d="M406.747,205.546c-0.048-0.439,0.358-0.561,0.69-0.69c0.493-0.191,0.991-0.372,1.484-0.563
						c1.449-0.563,2.872-1.151,4.209-1.953c0.981-0.588,1.902-1.274,2.774-2.013c0.431-0.365,0.849-0.743,1.259-1.13
						c0.375-0.354,0.728-0.776,1.178-1.038c0.308-0.179,0.648-0.042,0.824,0.256c0.349,0.593-0.388,1.152-0.746,1.531
						c-0.54,0.571-1.109,1.115-1.704,1.63c-2.276,1.969-4.921,3.598-7.803,4.504c-0.439,0.138-0.912,0.192-1.375,0.181
						c-0.344-0.008-0.639-0.189-0.755-0.523C406.761,205.678,406.754,205.609,406.747,205.546z"/>
					<path style="fill:#1D2540;" d="M402.414,207.353c0.35,0.812,1.131,1.083,1.959,0.979c1.025-0.128,2.154-0.557,3.063-1.04
						c0.547-0.291,1.012-0.624,1.078-1.292c0.056-0.561-0.082-1.228-0.569-1.557c-0.616-0.417-1.456-0.29-2.147-0.186
						c-0.767,0.115-1.517,0.322-2.255,0.557c-0.252,0.081-0.508,0.167-0.726,0.316c-0.547,0.376-0.664,1.187-0.524,1.839
						C402.322,207.106,402.363,207.236,402.414,207.353z"/>
					<g>
						<g>
							<path style="fill:#CADEFF;" d="M418.526,191.952c1.619-0.934,2.926-0.178,2.931,1.67c0.005,1.86-1.293,4.109-2.912,5.044
								c-1.608,0.929-2.916,0.184-2.921-1.676C415.619,195.142,416.917,192.881,418.526,191.952"/>
						</g>
						<polygon style="fill:#CADEFF;" points="419.394,200.57 416.582,198.922 420.61,191.754 423.527,193.453 						"/>
						<g>
							<path style="fill:#CADEFF;" d="M421.485,193.678c1.618-0.935,2.926-0.178,2.931,1.67c0.005,1.86-1.293,4.109-2.912,5.044
								c-1.608,0.929-2.916,0.184-2.921-1.676C418.578,196.867,419.876,194.606,421.485,193.678"/>
						</g>
						<g>
							<path style="fill:#FFFFFF;" d="M421.486,193.867c1.527-0.882,2.76-0.168,2.765,1.576c0.005,1.755-1.22,3.877-2.747,4.758
								c-1.517,0.876-2.751,0.173-2.756-1.581C418.743,196.877,419.968,194.743,421.486,193.867"/>
						</g>
						<g>
							<path style="fill:none;stroke:#546FBF;stroke-width:0.2;stroke-miterlimit:10;" d="M421.488,194.314
								c1.245-0.757,2.251-0.144,2.255,1.354c0.004,1.507-0.995,3.33-2.241,4.087c-1.238,0.752-2.243,0.149-2.247-1.358
								C419.251,196.899,420.251,195.067,421.488,194.314"/>
						</g>
					</g>
					<path style="fill:#CADEFF;" d="M417.362,195.054c0,0,0.967-7.182-1.738-11.136c-3.69-5.394-13.658-8.24-17.383-7.533
						c0,0,1.132-2.2,4.346-3.262c0,0,9.264,0.272,15.62,8.231c2.076,2.599,2.646,7.67,2.716,11.345L417.362,195.054z"/>
					<path style="fill:#D670A3;" d="M378.496,207.183c0,0-4.949-0.708-6.142,3.157C372.355,210.341,377.722,212.288,378.496,207.183
						z"/>
					<path style="fill:#F9CAAA;" d="M378.577,208.791c-0.973-1.675-1.039-3.718-0.204-5.467c0.359-0.753,0.719-1.529,0.934-2.338
						c0.127-0.48,0.228-1.319-0.183-1.695c-1.055-0.964-1.964,1.017-2.305,1.662c-0.578,1.095-1.278-0.401-1.507-0.916
						c-0.362-0.814-0.624-1.669-0.844-2.531c-0.166-0.648-0.221-1.598-1.007-1.805c-0.363-0.096-0.797,0.091-0.925,0.444
						c-0.286-0.238-0.579-0.481-0.927-0.611s-0.77-0.128-1.064,0.099c-0.379,0.292-0.431,0.839-0.409,1.317
						c0,0-0.575-0.295-1.159-0.101c-0.549,0.182-0.52,1.059-0.47,1.652c-0.188,0.006-0.344,0.163-0.406,0.341
						c-0.129,0.372-0.028,0.939,0.002,1.329c0.126,1.658,0.727,3.235,1.49,4.699c1.103,2.117,2.403,4.204,3.997,5.988
						c0.01,0.011,0.101,0.131,0.116,0.127l5.376-1.327L378.577,208.791z"/>
					<path style="fill:#E88BB5;" d="M404.254,222.674c-0.055-0.091-0.111-0.18-0.166-0.271c-0.867-1.424-1.176-2.959-1.79-4.472
						c-0.397-0.978-1.073-2.764-2.407-2.657c-0.555,0.045-1.052,0.349-1.508,0.669c-1.979,1.391-3.683,3.119-5.4,4.813
						c-1.042,1.028-3.264,4.41-5.044,3.463c-0.424-0.226-0.729-0.621-1.01-1.011c-2.091-2.901-8.433-16.025-8.433-16.025
						s-0.069,1.488-2.616,2.578c-1.814,0.776-3.526,0.58-3.526,0.58s4.844,15.183,8.138,22.025c1.265,2.627,2.933,4.938,6.128,4.894
						c2.921-0.04,5.623-1.798,7.951-3.39c2.312-1.581,4.434-3.415,6.613-5.169c1.045-0.84,2.258-1.728,2.988-2.872
						c0.471-0.737,0.708-1.677,0.413-2.5C404.503,223.098,404.382,222.884,404.254,222.674z"/>
					<path style="fill:#D670A3;" d="M404.254,222.674c-0.055-0.091-0.111-0.18-0.166-0.271c-0.867-1.424-1.176-2.959-1.79-4.472
						c-0.397-0.978-1.073-2.764-2.407-2.657c-0.555,0.045-1.052,0.349-1.508,0.669c-0.476,0.335-0.935,0.69-1.383,1.059
						c-0.347,0.568-0.655,1.14-0.917,1.661c-1.239,2.458-1.936,5.119-2.808,7.718c-0.895,2.669-2.023,5.503-4.045,7.534
						c-1.613,1.62-3.808,2.475-5.996,2.214c0.905,0.706,1.995,1.151,3.387,1.132c2.921-0.04,5.623-1.798,7.951-3.39
						c2.312-1.581,4.434-3.415,6.613-5.169c1.045-0.84,2.258-1.728,2.988-2.872c0.471-0.737,0.708-1.677,0.413-2.5
						C404.503,223.098,404.382,222.884,404.254,222.674z"/>
					<path style="fill:#F49DC0;" d="M393.955,281.263c-0.243-0.742-0.381-1.533-0.396-2.375
						c-0.218-11.934,0.388-24.117,0.768-36.138c0.275-8.688-1.638-20.566,4.445-27.5c6.846-7.803,23.256-3.685,28.053,4.936
						c2.172,3.904,2.97,8.43,3.219,12.843c0.399,7.077-4.542,20.712-4.392,53.378c0.002,0.446-3.082,1.588-3.412,1.726
						c-2.845,1.188-5.889,1.941-8.969,2.135C407.073,290.657,396.167,288.012,393.955,281.263z"/>
					<path style="opacity:0.1;fill:#999999;" d="M430.043,233.029c-0.072-1.268-0.196-2.544-0.378-3.813
						c-0.818-0.474-1.665-0.899-2.561-1.238c-0.243-0.092-0.5-0.171-0.763-0.241c0.006-0.078-0.006-0.158-0.06-0.216
						c-1.168-1.26-4.718-1.608-5.472,0.307c-0.196,0.497-0.19,1.047-0.182,1.582c0.1,6.629,0.251,13.266-0.083,19.891
						c-0.32,6.354-0.816,13.294-2.977,19.326c-1.16,3.239-3.084,6.257-6.238,7.772c-3.391,1.629-7.303,1.809-10.997,1.6
						c-2.303-0.13-4.56-0.528-6.792-1.052c0.007,0.647,0.008,1.295,0.02,1.94c0.015,0.842,0.153,1.633,0.396,2.375
						c2.212,6.75,13.118,9.395,19.315,9.005c3.08-0.193,6.124-0.947,8.969-2.135c0.33-0.138,3.414-1.28,3.412-1.726
						C425.502,253.741,430.442,240.106,430.043,233.029z"/>
					<path style="fill:#D670A3;" d="M410.107,211.109c0,0,0.815,1.751,0.857,3.512c0,0,4.439-0.332,7.031-1.699l-1.022-2.626
						C416.973,210.296,414.886,211.669,410.107,211.109z"/>
					<path style="fill:#E88BB5;" d="M433.191,244.554c-0.01-0.091-0.02-0.183-0.03-0.274c-0.488-4.386-1.467-8.7-2.632-12.952
						c-1.027-3.749-1.729-8.553-4.021-11.749c-1.19-1.66-3.505-3.438-5.654-2.757c-2.006,0.635-2.544,2.907-2.662,4.773
						c-0.193,3.044,0.719,6.426,1.22,9.419c1.229,7.339,3.857,14.846,3.959,22.31c0.006,0.453-0.062,0.903-0.13,1.351
						c-1.44,9.52-2.368,19.262-4.462,28.658c-0.102,0.457,0.202,0.811,0.649,0.852c1.843,0.171,3.699,0.272,5.55,0.169
						c1.04-0.058,3.259,0.039,3.983-0.883c0.369-0.469,0.474-1.087,0.567-1.676c0.186-1.174,0.107-2.336,0.341-3.515
						c0.306-1.537,0.611-3.074,0.905-4.613c0.588-3.079,1.137-6.167,1.584-9.27C433.298,257.866,433.889,251.139,433.191,244.554z"
						/>
					<path style="fill:#D670A3;" d="M410.107,211.109c0,0-1.73-0.203-2.601-1.055l-1.583,1.35c0,0,0.76,1.168,1.842,2.25
						C407.765,213.653,408.938,211.853,410.107,211.109z"/>
				</g>
			</g>
			<g>
				<path style="fill:#FFFFFF;" d="M370.28,177.345c-0.319-0.184-0.576-0.63-0.575-0.996l0.03-10.63
					c0.001-0.366,0.26-0.514,0.579-0.33l13.429,7.753c0.319,0.184,0.576,0.63,0.575,0.996l-0.03,10.631
					c-0.001,0.366-0.26,0.514-0.579,0.33l-7.976-4.605c-0.405-0.234-0.789-0.277-1.078-0.117l-2.325,1.27l0.004-1.351
					c0.003-0.97-0.684-2.16-1.528-2.647L370.28,177.345 M383.746,172.042l-13.429-7.753c-0.844-0.487-1.536-0.093-1.538,0.877
					l-0.03,10.63c-0.003,0.97,0.684,2.16,1.528,2.647l0.525,0.303c0.319,0.184,0.576,0.63,0.575,0.996l-0.004,1.46
					c-0.001,0.426,0.217,0.934,0.561,1.301c0.112,0.119,0.232,0.213,0.353,0.283c0.237,0.137,0.465,0.165,0.643,0.069l2.394-1.31
					c0.108-0.057,0.255-0.041,0.405,0.046l7.976,4.605c0.844,0.487,1.535,0.093,1.538-0.877l0.03-10.63
					C385.277,173.719,384.59,172.53,383.746,172.042"/>
				<path style="fill:#FFFFFF;" d="M372.915,171.544c-0.693-0.4-1.259-0.078-1.262,0.719c-0.002,0.797,0.56,1.771,1.253,2.171
					c0.694,0.4,1.255,0.075,1.258-0.721C374.166,172.916,373.608,171.945,372.915,171.544"/>
				<path style="fill:#FFFFFF;" d="M377.015,173.912c-0.693-0.4-1.259-0.078-1.262,0.719c-0.002,0.797,0.56,1.771,1.254,2.171
					c0.693,0.4,1.259,0.078,1.262-0.719C378.271,175.286,377.708,174.312,377.015,173.912"/>
				<path style="fill:#FFFFFF;" d="M381.115,176.279c-0.693-0.4-1.259-0.078-1.262,0.719c-0.002,0.797,0.56,1.771,1.254,2.171
					c0.693,0.4,1.259,0.078,1.262-0.719C382.371,177.653,381.809,176.679,381.115,176.279"/>
			</g>
			<g>
				<path style="fill:none;stroke:#6AE2CB;stroke-width:2;stroke-miterlimit:10;" d="M450.085,187.916l-83.137-47.999
					c-2.753-1.589-6.194,0.391-6.203,3.57l-0.238,83.847c-0.011,3.772,1.997,7.262,5.264,9.148l86.847,50.141
					c2.296,1.326,5.168-0.327,5.175-2.978l0.232-81.929C458.042,196.025,455.013,190.761,450.085,187.916z"/>
			</g>
		</g>
		<g>
			<g>
				<path style="fill:#F49DC0;" d="M336.672,126.096c-5.977-3.451-10.838-0.68-10.858,6.187c-0.02,6.868,4.811,15.233,10.787,18.684
					c5.977,3.451,10.838,0.68,10.858-6.188C347.478,137.913,342.648,129.547,336.672,126.096z"/>
			</g>
			<g>
				<path style="fill:#FFFFFF;" d="M336.625,142.514c-1.035-0.598-1.895-0.108-1.898,1.081c-0.003,1.189,0.85,2.668,1.885,3.266
					c1.035,0.598,1.895,0.108,1.898-1.082C338.514,144.59,337.66,143.111,336.625,142.514 M336.9,130.346
					c-2.21-1.276-4.147-1.065-5.028,0.785l2.74,3.392c0.404-0.843,1.061-1.312,2.158-0.679c1.014,0.586,1.472,1.378,1.47,2.178
					c-0.006,2.012-3.196,1.204-3.203,3.878l3.187,1.84c0.004-1.579,3.191-0.792,3.201-4.203
					C341.433,134.565,339.169,131.656,336.9,130.346"/>
			</g>
			<g>
				<g>
					<path style="fill:#6AE2CB;" d="M336.672,194.683c-5.977-3.451-10.838-0.68-10.858,6.188
						c-0.02,6.872,4.811,15.233,10.787,18.684c5.977,3.451,10.838,0.684,10.858-6.187
						C347.478,206.499,342.648,198.134,336.672,194.683"/>
				</g>
				<g>
					<path style="fill:#FFFFFF;" d="M336.624,211.373c-2.046-1.181-3.696-4.039-3.689-6.39c0.007-2.347,1.667-3.293,3.713-2.112
						c2.043,1.179,3.696,4.039,3.689,6.386C340.33,211.608,338.666,212.552,336.624,211.373 M337.534,200.35l-1.755-1.013
						l-0.251,1.425c-0.576-0.183-1.115-0.234-1.599-0.162l-1.135-1.563l-1.245,0.705l0.788,1.768
						c-0.31,0.377-0.538,0.865-0.67,1.451l-1.365-0.504l-0.006,2.012l1.363,1.071c0.128,0.737,0.353,1.486,0.66,2.219l-0.795,0.85
						l1.237,2.142l1.14-0.249c0.482,0.629,1.02,1.2,1.595,1.682l0.242,1.71l1.755,1.013l0.248-1.427
						c0.576,0.183,1.115,0.233,1.603,0.164l1.135,1.563l1.245-0.709l-0.788-1.764c0.307-0.379,0.538-0.865,0.67-1.451l1.361,0.502
						l0.006-2.012l-1.36-1.069c-0.128-0.737-0.356-1.488-0.66-2.219l0.795-0.854l-1.236-2.138l-1.14,0.249
						c-0.486-0.631-1.023-1.202-1.598-1.684L337.534,200.35"/>
					<path style="fill:#FFFFFF;" d="M336.642,204.943c-1.049-0.605-1.898-0.118-1.901,1.083c-0.003,1.205,0.84,2.666,1.889,3.272
						c1.045,0.604,1.898,0.122,1.901-1.083C338.534,207.013,337.687,205.546,336.642,204.943"/>
				</g>
			</g>
			<g>
				<g>
					
						<ellipse transform="matrix(0.8646 -0.5025 0.5025 0.8646 -41.2578 192.5433)" style="fill:#7798D9;" cx="336.636" cy="172.826" rx="8.836" ry="15.256"/>
				</g>
				<g>
					<path style="fill:#FFFFFF;" d="M331.818,174.973l3.984-1.96l0.266,0.45c0.159,0.259,0.361,0.46,0.564,0.577
						c0.203,0.117,0.406,0.151,0.567,0.076l0.254-0.137l3.95,6.528L331.818,174.973 M331.371,173.997l0.024-8.506l3.863,6.593
						L331.371,173.997 M341.878,180.087L338,173.679l3.902-2.122L341.878,180.087 M341.54,169.877l-9.777-5.645
						c-0.445-0.257-0.83-0.176-1.013,0.157l0.007,0.012c-0.076,0.13-0.121,0.297-0.122,0.502l-0.025,8.951
						c-0.002,0.717,0.5,1.586,1.12,1.945l9.777,5.645c0.271,0.156,0.514,0.183,0.71,0.114l0.007-0.004
						c0.045-0.018,0.089-0.039,0.131-0.067l0.014-0.012c0.038-0.029,0.072-0.065,0.1-0.104l0.014-0.016
						c0.096-0.138,0.155-0.32,0.156-0.557l0.025-8.951c0.001-0.205-0.047-0.426-0.118-0.64l0.007-0.004
						C342.372,170.661,341.989,170.136,341.54,169.877"/>
				</g>
			</g>
		</g>
		<polygon style="fill:#1D2540;" points="296.044,93.629 488.518,204.908 488.561,191.543 296.091,78.946 		"/>
		<path style="fill:#121726;" d="M484.162,192.445L301.69,85.697c-1.161-0.679-2.621,0.155-2.626,1.5l-0.01,3.08
			c-0.003,1.005,0.531,1.934,1.401,2.437L483.03,198.269c1.115,0.645,2.51-0.157,2.514-1.445l0.006-1.949
			C485.553,193.875,485.024,192.95,484.162,192.445z"/>
		<g style="opacity:0.05;">
			<g>
				<polygon style="fill:#FFFFFF;" points="317.52,85.794 292.012,97.583 291.716,194.974 410.394,140.127 				"/>
			</g>
			<g>
				<polygon style="fill:#FFFFFF;" points="425.873,149.182 296.131,209.143 320.081,222.989 449.666,163.101 				"/>
			</g>
			<g>
				<polygon style="fill:#FFFFFF;" points="465.145,172.156 335.662,231.997 429.149,286.047 492.368,256.829 492.575,188.203 				
					"/>
			</g>
			<g>
				<polygon style="fill:#FFFFFF;" points="468.68,308.901 492.244,298.011 492.32,273.061 444.73,295.055 				"/>
			</g>
		</g>
		<g>
			<path style="fill:#CADEFF;" d="M495.279,336.488l-120.51,69.544c-2.796,1.614-6.242,1.608-9.033-0.015L169.533,291.944
				c-5.987-3.481-5.973-12.133,0.025-15.595l110.35-63.681c2.796-1.614,6.242-1.608,9.033,0.015l206.344,119.97
				C496.757,333.509,496.754,335.637,495.279,336.488z"/>
		</g>
		<g>
			<path style="fill:#FFF8FF;" d="M330.275,341.087l-30.116,17.83c-0.749,0.435-1.673,0.436-2.423,0.004l-52.73-30.444
				c-1.609-0.929-1.612-3.25-0.006-4.184l28.858-16.329c0.749-0.435,1.673-0.436,2.423-0.003l53.992,32.097
				C330.669,340.287,330.67,340.858,330.275,341.087z"/>
		</g>
		<g>
			<path style="fill:#7798D9;" d="M285.363,230.698l6.686,3.847c0.802,0.461,2.129,0.448,2.962-0.029l3.399-1.947
				c0.832-0.477,0.855-1.235,0.051-1.694l-6.698-3.828c-0.797-0.456-2.115-0.441-2.945,0.032l-3.39,1.933
				C284.597,229.485,284.567,230.24,285.363,230.698z"/>
			<path style="fill:#7798D9;" d="M297.158,237.484l6.767,3.893c0.812,0.467,2.148,0.455,2.985-0.027l3.41-1.964
				c0.835-0.481,0.852-1.247,0.039-1.712l-6.779-3.875c-0.807-0.461-2.135-0.448-2.968,0.029l-3.401,1.95
				C296.376,236.258,296.352,237.021,297.158,237.484z"/>
			<path style="fill:#7798D9;" d="M309.095,244.352l6.85,3.941c0.821,0.473,2.168,0.462,3.007-0.024l3.42-1.982
				c0.837-0.485,0.848-1.26,0.025-1.73l-6.861-3.922c-0.817-0.467-2.155-0.454-2.99,0.027l-3.412,1.967
				C308.299,243.112,308.28,243.883,309.095,244.352z"/>
			<path style="fill:#7798D9;" d="M321.179,251.304l6.934,3.989c0.832,0.478,2.189,0.469,3.03-0.022l3.431-2
				c0.84-0.49,0.845-1.273,0.012-1.749l-6.945-3.97c-0.827-0.473-2.175-0.461-3.013,0.025l-3.422,1.985
				C320.366,250.05,320.354,250.829,321.179,251.304z"/>
			<path style="fill:#7798D9;" d="M333.411,258.341l7.019,4.038c0.842,0.484,2.21,0.476,3.054-0.019l3.442-2.018
				c0.842-0.494,0.841-1.285-0.002-1.767l-7.03-4.019c-0.837-0.478-2.195-0.468-3.036,0.022l-3.433,2.003
				C332.582,257.073,332.575,257.861,333.411,258.341z"/>
			<path style="fill:#7798D9;" d="M345.793,265.465l7.106,4.088c0.852,0.49,2.23,0.483,3.077-0.016l3.453-2.037
				c0.845-0.499,0.837-1.298-0.016-1.786l-7.118-4.068c-0.847-0.484-2.216-0.475-3.059,0.02l-3.444,2.021
				C344.948,264.183,344.948,264.979,345.793,265.465z"/>
			<path style="fill:#7798D9;" d="M358.33,272.678l7.195,4.139c0.863,0.497,2.252,0.49,3.102-0.014l3.463-2.055
				c0.848-0.503,0.833-1.312-0.031-1.806l-7.206-4.119c-0.858-0.49-2.238-0.483-3.083,0.017l-3.454,2.04
				C357.467,271.38,357.474,272.185,358.33,272.678z"/>
			<path style="fill:#7798D9;" d="M371.023,279.981l7.285,4.191c0.874,0.503,2.274,0.498,3.126-0.011l3.474-2.075
				c0.85-0.508,0.829-1.325-0.046-1.826l-7.297-4.171c-0.868-0.496-2.259-0.49-3.107,0.014l-3.465,2.059
				C370.144,278.668,370.156,279.482,371.023,279.981z"/>
			<path style="fill:#7798D9;" d="M383.877,287.375l7.377,4.244c0.885,0.509,2.296,0.505,3.151-0.008l3.485-2.094
				c0.853-0.513,0.825-1.339-0.061-1.846l-7.389-4.223c-0.879-0.503-2.281-0.497-3.132,0.011l-3.476,2.078
				C382.979,286.048,382.999,286.87,383.877,287.375z"/>
			<path style="fill:#7798D9;" d="M396.892,294.864l7.471,4.298c0.896,0.516,2.319,0.513,3.176-0.005l3.495-2.114
				c0.856-0.517,0.821-1.353-0.077-1.866l-7.483-4.277c-0.89-0.509-2.303-0.505-3.157,0.008l-3.487,2.098
				C395.977,293.521,396.003,294.352,396.892,294.864z"/>
			<path style="fill:#7798D9;" d="M410.074,302.448l7.567,4.353c0.908,0.522,2.342,0.521,3.202-0.002l3.506-2.134
				c0.858-0.522,0.816-1.367-0.093-1.887l-7.578-4.332c-0.902-0.515-2.326-0.513-3.182,0.005l-3.497,2.118
				C409.14,301.089,409.174,301.93,410.074,302.448z"/>
			<path style="fill:#7798D9;" d="M423.425,310.129l7.664,4.41c0.92,0.529,2.365,0.529,3.228,0.001l3.517-2.155
				c0.861-0.527,0.811-1.382-0.109-1.908l-7.676-4.388c-0.913-0.522-2.349-0.521-3.208,0.003l-3.508,2.138
				C422.472,308.754,422.513,309.604,423.425,310.129z"/>
			<path style="fill:#7798D9;" d="M436.948,317.909l7.764,4.467c0.931,0.536,2.389,0.538,3.254,0.004l3.527-2.176
				c0.863-0.533,0.806-1.397-0.126-1.93l-7.775-4.444c-0.925-0.529-2.372-0.529-3.234-0.001l-3.519,2.159
				C435.976,316.517,436.024,317.377,436.948,317.909z"/>
			<path style="fill:#7798D9;" d="M465.188,326.173l-7.877-4.502c-0.937-0.536-2.396-0.537-3.26-0.004l-3.53,2.18
				c-0.866,0.535-0.81,1.404,0.126,1.943l7.865,4.525c0.944,0.543,2.413,0.546,3.281,0.007l3.538-2.197
				C466.198,327.588,466.133,326.714,465.188,326.173z"/>
			<path style="fill:#7798D9;" d="M274.237,237.457l6.131,3.569c0.998,0.581,2.657,0.566,3.704-0.033l6.177-3.538
				c1.043-0.597,1.076-1.55,0.076-2.126l-6.147-3.542c-0.994-0.572-2.642-0.555-3.682,0.038l-6.161,3.512
				C273.291,235.93,273.246,236.88,274.237,237.457z"/>
			<path style="fill:#7798D9;" d="M301.734,241.902l-6.219-3.584c-1.005-0.579-2.665-0.563-3.709,0.035l-6.18,3.542
				c-1.047,0.6-1.085,1.56-0.082,2.143l6.203,3.61c1.01,0.588,2.681,0.574,3.731-0.031l6.196-3.569
				C302.72,243.447,302.746,242.485,301.734,241.902z"/>
			<path style="fill:#7798D9;" d="M313.276,248.552l-6.292-3.626c-1.017-0.586-2.689-0.572-3.736,0.032l-6.199,3.573
				c-1.05,0.605-1.081,1.575-0.067,2.165l6.275,3.653c1.022,0.595,2.705,0.583,3.758-0.027l6.215-3.6
				C314.281,250.114,314.3,249.143,313.276,248.552z"/>
			<path style="fill:#7798D9;" d="M279.709,254.07l6.22,3.663c1.013,0.596,2.692,0.585,3.75-0.026l6.241-3.605
				c1.054-0.609,1.084-1.582,0.069-2.174l-6.237-3.636c-1.008-0.588-2.676-0.574-3.727,0.03L279.8,251.9
				C278.745,252.506,278.703,253.478,279.709,254.07z"/>
			<path style="fill:#7798D9;" d="M262.689,244.046l11.407,6.719c1,0.589,2.667,0.576,3.721-0.029l6.221-3.572
				c1.051-0.603,1.088-1.567,0.085-2.151l-11.439-6.669c-0.991-0.577-2.64-0.562-3.687,0.035l-6.195,3.532
				C261.753,242.508,261.702,243.464,262.689,244.046z"/>
			<path style="fill:#7798D9;" d="M307.54,258.663l-6.31-3.679c-1.02-0.594-2.7-0.582-3.754,0.027l-6.243,3.609
				c-1.058,0.612-1.093,1.593-0.076,2.192l6.293,3.706c1.025,0.604,2.716,0.594,3.777-0.023l6.26-3.636
				C308.544,260.246,308.567,259.262,307.54,258.663z"/>
			<path style="fill:#7798D9;" d="M319.229,265.478l-6.385-3.722c-1.032-0.602-2.724-0.591-3.782,0.024l-6.263,3.64
				c-1.061,0.617-1.089,1.608-0.06,2.214l6.368,3.75c1.037,0.611,2.741,0.602,3.805-0.02l6.279-3.668
				C320.253,267.077,320.268,266.084,319.229,265.478z"/>
			<path style="fill:#7798D9;" d="M331.056,272.373l-6.46-3.766c-1.044-0.609-2.749-0.599-3.81,0.021l-6.282,3.672
				c-1.065,0.622-1.085,1.624-0.043,2.237l6.444,3.795c1.049,0.618,2.766,0.611,3.834-0.016l6.298-3.701
				C332.1,273.991,332.108,272.987,331.056,272.373z"/>
			<path style="fill:#7798D9;" d="M343.025,279.351l-6.538-3.812c-1.056-0.616-2.774-0.608-3.838,0.018l-6.301,3.705
				c-1.068,0.628-1.081,1.64-0.027,2.26l6.521,3.841c1.062,0.625,2.792,0.62,3.862-0.013l6.318-3.733
				C344.089,280.986,344.09,279.972,343.025,279.351z"/>
			<path style="fill:#7798D9;" d="M355.138,286.413l-6.617-3.857c-1.069-0.623-2.8-0.617-3.867,0.014l-6.32,3.738
				c-1.071,0.633-1.076,1.656-0.01,2.284l6.6,3.887c1.075,0.633,2.818,0.629,3.892-0.01l6.337-3.767
				C356.223,288.066,356.215,287.041,355.138,286.413z"/>
			<path style="fill:#7798D9;" d="M367.397,293.56l-6.697-3.904c-1.082-0.631-2.826-0.626-3.896,0.011l-6.339,3.772
				c-1.074,0.639-1.072,1.672,0.008,2.308l6.68,3.934c1.088,0.641,2.844,0.638,3.921-0.006l6.356-3.801
				C368.503,295.232,368.488,294.196,367.397,293.56z"/>
			<path style="fill:#7798D9;" d="M379.806,300.794l-6.778-3.952c-1.095-0.639-2.852-0.635-3.926,0.008l-6.359,3.806
				c-1.078,0.645-1.067,1.689,0.026,2.333l6.761,3.982c1.101,0.648,2.871,0.647,3.951-0.003l6.376-3.836
				C380.933,302.485,380.91,301.438,379.806,300.794z"/>
			<path style="fill:#7798D9;" d="M375.215,310.319l6.844,4.031c1.115,0.656,2.898,0.657,3.982,0.001l6.395-3.871
				c1.08-0.654,1.048-1.712-0.069-2.363l-6.861-4c-1.109-0.646-2.879-0.644-3.956,0.004l-6.378,3.84
				C374.09,308.612,374.109,309.668,375.215,310.319z"/>
			<path style="fill:#7798D9;" d="M405.17,317.919c1.083-0.66,1.043-1.729-0.089-2.389l-6.946-4.049
				c-1.122-0.654-2.906-0.654-3.987,0l-6.397,3.876c-1.084,0.657-1.057,1.724,0.063,2.383l6.929,4.081
				c1.128,0.665,2.926,0.667,4.013,0.005L405.17,317.919z"/>
			<path style="fill:#7798D9;" d="M418.063,325.45c1.086-0.666,1.037-1.747-0.108-2.415l-7.032-4.1
				c-1.136-0.662-2.934-0.664-4.018-0.003l-6.417,3.911c-1.088,0.663-1.052,1.741,0.082,2.409l7.015,4.132
				c1.142,0.673,2.954,0.677,4.044,0.009L418.063,325.45z"/>
			<path style="fill:#7798D9;" d="M413.485,332.859l7.103,4.184c1.157,0.681,2.982,0.687,4.076,0.012l6.452-3.98
				c1.09-0.672,1.031-1.765-0.128-2.441l-7.12-4.151c-1.15-0.671-2.963-0.674-4.049-0.007l-6.436,3.948
				C412.292,331.093,412.337,332.183,413.485,332.859z"/>
			<path style="fill:#7798D9;" d="M271.057,260.326c-1.062,0.611-1.109,1.592-0.104,2.191l6.219,3.706
				c1.013,0.603,2.697,0.594,3.762-0.022l6.281-3.633c1.061-0.613,1.096-1.596,0.081-2.195l-6.236-3.678
				c-1.008-0.595-2.681-0.583-3.739,0.026L271.057,260.326z"/>
			<path style="fill:#7798D9;" d="M251.077,250.671l14.436,8.603c1,0.596,2.673,0.585,3.734-0.025l6.261-3.601
				c1.057-0.608,1.1-1.581,0.097-2.173l-14.476-8.54c-0.987-0.582-2.639-0.568-3.691,0.032l-6.23,3.551
				C250.152,249.121,250.093,250.085,251.077,250.671z"/>
			<path style="fill:#7798D9;" d="M282.488,267.125c-1.065,0.616-1.105,1.607-0.088,2.213l6.292,3.75
				c1.025,0.611,2.722,0.602,3.79-0.019l6.301-3.665c1.064-0.619,1.093-1.612,0.065-2.218l-6.31-3.722
				c-1.02-0.602-2.705-0.591-3.766,0.023L282.488,267.125z"/>
			<path style="fill:#7798D9;" d="M293.981,276.241l6.367,3.795c1.037,0.618,2.747,0.611,3.818-0.016l6.32-3.697
				c1.067-0.624,1.089-1.628,0.049-2.241l-6.384-3.766c-1.032-0.608-2.73-0.599-3.794,0.02l-6.303,3.669
				C292.986,274.627,292.952,275.628,293.981,276.241z"/>
			<path style="fill:#7798D9;" d="M305.701,283.226l6.443,3.84c1.049,0.625,2.772,0.62,3.846-0.012l6.34-3.73
				c1.071-0.63,1.084-1.644,0.032-2.265l-6.461-3.811c-1.044-0.616-2.755-0.608-3.822,0.017l-6.323,3.702
				C304.686,281.594,304.66,282.605,305.701,283.226z"/>
			<path style="fill:#7798D9;" d="M317.562,290.294l6.521,3.886c1.062,0.633,2.798,0.629,3.875-0.009l6.359-3.764
				c1.074-0.636,1.08-1.66,0.015-2.288l-6.538-3.857c-1.056-0.623-2.78-0.617-3.851,0.014l-6.342,3.735
				C316.526,288.644,316.508,289.666,317.562,290.294z"/>
			<path style="fill:#7798D9;" d="M329.565,297.448l6.6,3.933c1.075,0.641,2.824,0.638,3.905-0.005l6.379-3.798
				c1.077-0.641,1.076-1.677-0.002-2.312l-6.617-3.904c-1.069-0.631-2.806-0.626-3.88,0.01l-6.362,3.768
				C328.51,295.779,328.499,296.812,329.565,297.448z"/>
			<path style="fill:#7798D9;" d="M341.715,304.688l6.681,3.981c1.088,0.648,2.85,0.648,3.934-0.002l6.398-3.832
				c1.08-0.647,1.071-1.694-0.02-2.337l-6.698-3.951c-1.082-0.638-2.832-0.635-3.91,0.007l-6.381,3.802
				C340.638,303.001,340.635,304.045,341.715,304.688z"/>
			<path style="fill:#7798D9;" d="M354.012,312.017l6.763,4.03c1.101,0.656,2.877,0.657,3.965,0.002l6.418-3.867
				c1.084-0.653,1.066-1.711-0.038-2.362l-6.78-4c-1.095-0.646-2.859-0.645-3.939,0.003L354,309.661
				C352.915,310.311,352.92,311.366,354.012,312.017z"/>
			<path style="fill:#7798D9;" d="M366.461,319.436l6.846,4.08c1.115,0.665,2.904,0.667,3.996,0.006l6.438-3.903
				c1.087-0.659,1.061-1.728-0.057-2.387l-6.863-4.049c-1.109-0.654-2.885-0.654-3.97,0l-6.42,3.872
				C365.342,317.711,365.355,318.777,366.461,319.436z"/>
			<path style="fill:#7798D9;" d="M379.064,326.947l6.931,4.131c1.129,0.673,2.932,0.677,4.027,0.009l6.457-3.939
				c1.09-0.665,1.056-1.746-0.076-2.413l-6.948-4.099c-1.123-0.662-2.913-0.664-4.001-0.004l-6.44,3.908
				C377.923,325.202,377.944,326.28,379.064,326.947z"/>
			<path style="fill:#7798D9;" d="M402.9,338.747l6.477-3.976c1.094-0.671,1.05-1.764-0.096-2.44l-7.035-4.15
				c-1.137-0.671-2.941-0.674-4.032-0.008l-6.46,3.944c-1.095,0.668-1.064,1.758,0.069,2.434l7.018,4.182
				C399.985,339.415,401.802,339.421,402.9,338.747z"/>
			<path style="fill:#7798D9;" d="M432.124,345.807l-16.771-9.893c-1.151-0.679-2.97-0.684-4.064-0.012l-6.479,3.982
				c-1.098,0.675-1.059,1.776,0.089,2.461l16.731,9.971c1.168,0.696,3.011,0.706,4.115,0.02l6.511-4.042
				C433.355,347.611,433.296,346.498,432.124,345.807z"/>
			<path style="fill:#7798D9;" d="M265.15,272.864l6.237,3.761c1.016,0.612,2.709,0.605,3.781-0.017l6.327-3.67
				c1.069-0.62,1.108-1.615,0.09-2.223l-6.254-3.733c-1.011-0.603-2.693-0.594-3.758,0.022l-6.31,3.643
				C264.193,271.263,264.142,272.256,265.15,272.864z"/>
			<path style="fill:#7798D9;" d="M244.148,262.535l-7.288-4.404c-0.645-0.39-1.735-0.382-2.435,0.017l-9.26,5.279
				c-0.704,0.401-0.753,1.045-0.11,1.438l7.263,4.442c0.648,0.397,1.746,0.391,2.452-0.013l9.286-5.319
				C244.757,263.573,244.798,262.928,244.148,262.535z"/>
			<path style="fill:#7798D9;" d="M255.44,269.359l-7.374-4.456c-0.653-0.395-1.751-0.388-2.453,0.015l-9.29,5.325
				c-0.706,0.405-0.751,1.055-0.1,1.453l7.349,4.495c0.656,0.401,1.762,0.396,2.47-0.011l9.316-5.365
				C256.062,270.408,256.098,269.757,255.44,269.359z"/>
			<path style="fill:#7798D9;" d="M266.866,276.264l-7.461-4.509c-0.66-0.399-1.767-0.393-2.471,0.013l-9.32,5.372
				c-0.708,0.408-0.749,1.065-0.09,1.468l7.436,4.548c0.664,0.406,1.778,0.402,2.488-0.009l9.345-5.413
				C267.5,277.325,267.533,276.667,266.866,276.264z"/>
			<path style="fill:#7798D9;" d="M281.088,284.858l-10.21-6.17c-0.668-0.404-1.783-0.399-2.489,0.011l-9.35,5.42
				c-0.71,0.412-0.746,1.076-0.08,1.483l10.176,6.224c0.674,0.412,1.798,0.409,2.511-0.007l9.382-5.472
				C281.738,285.933,281.764,285.267,281.088,284.858z"/>
			<path style="fill:#7798D9;" d="M356.763,330.59l-11.014-6.656c-0.721-0.436-1.889-0.437-2.61-0.004l-9.536,5.734
				c-0.724,0.435-0.73,1.145-0.011,1.585l10.98,6.716c0.727,0.445,1.906,0.448,2.633,0.008l9.569-5.793
				C357.498,331.742,357.492,331.03,356.763,330.59z"/>
			<path style="fill:#7798D9;" d="M369.492,338.282l-8.138-4.918c-0.732-0.442-1.912-0.445-2.635-0.007l-9.574,5.801
				c-0.727,0.441-0.726,1.16,0.004,1.606l8.114,4.962c0.736,0.45,1.925,0.455,2.654,0.011l9.599-5.847
				C370.242,339.448,370.231,338.728,369.492,338.282z"/>
			<path style="fill:#7798D9;" d="M376.293,349.845l-8.229-5.003c-0.74-0.45-1.93-0.455-2.658-0.011l-3.489,2.128
				c-0.73,0.445-0.722,1.172,0.017,1.624l8.217,5.026c0.746,0.456,1.944,0.462,2.675,0.014l3.499-2.145
				C377.054,351.03,377.04,350.299,376.293,349.845z"/>
			<path style="fill:#7798D9;" d="M402.417,365.727l-8.44-5.131c-0.759-0.462-1.968-0.469-2.701-0.016l-3.511,2.168
				c-0.734,0.453-0.716,1.197,0.042,1.66l8.428,5.154c0.765,0.468,1.982,0.477,2.719,0.019l3.52-2.186
				C403.208,366.94,403.183,366.192,402.417,365.727z"/>
			<path style="fill:#7798D9;" d="M389.272,357.736l-8.333-5.066c-0.75-0.456-1.949-0.462-2.679-0.014l-3.5,2.148
				c-0.732,0.449-0.719,1.184,0.029,1.642l8.321,5.089c0.755,0.462,1.963,0.469,2.697,0.017l3.51-2.165
				C390.048,358.935,390.029,358.195,389.272,357.736z"/>
			<path style="fill:#7798D9;" d="M381.619,352.251l8.335,5.064c0.756,0.46,1.963,0.466,2.694,0.015l3.498-2.158
				c0.73-0.45,0.707-1.186-0.051-1.644l-8.347-5.041c-0.751-0.454-1.949-0.459-2.677-0.012l-3.488,2.141
				C380.854,351.064,380.87,351.796,381.619,352.251z"/>
			<path style="fill:#7798D9;" d="M340.855,320.976l-55.744-33.687c-0.678-0.41-1.803-0.406-2.512,0.008l-9.386,5.479
				c-0.713,0.416-0.743,1.089-0.068,1.502l55.568,33.986c0.716,0.438,1.883,0.44,2.607,0.005l9.531-5.725
				C341.572,322.113,341.573,321.41,340.855,320.976z"/>
			<path style="fill:#7798D9;" d="M239.4,257.334l19.805,11.944c1.003,0.605,2.683,0.596,3.752-0.021l6.306-3.636
				c1.065-0.614,1.112-1.599,0.106-2.199l-19.862-11.856c-0.984-0.587-2.638-0.575-3.696,0.029l-6.265,3.571
				C238.485,255.772,238.419,256.742,239.4,257.334z"/>
			<path style="fill:#7798D9;" d="M276.63,279.787l6.311,3.806c1.028,0.62,2.734,0.614,3.809-0.014l6.347-3.703
				c1.072-0.625,1.104-1.631,0.074-2.246l-6.328-3.778c-1.023-0.611-2.717-0.602-3.786,0.018l-6.329,3.675
				C275.654,278.169,275.61,279.172,276.63,279.787z"/>
			<path style="fill:#7798D9;" d="M288.247,286.793l6.387,3.852c1.04,0.627,2.759,0.622,3.838-0.011l6.367-3.736
				c1.075-0.631,1.1-1.647,0.057-2.269l-6.404-3.823c-1.035-0.618-2.742-0.611-3.814,0.015l-6.35,3.707
				C287.251,285.157,287.215,286.17,288.247,286.793z"/>
			<path style="fill:#7798D9;" d="M300.003,293.883l6.464,3.898c1.052,0.635,2.784,0.632,3.867-0.007l6.387-3.769
				c1.078-0.637,1.096-1.663,0.041-2.293l-6.481-3.869c-1.047-0.625-2.767-0.62-3.843,0.012l-6.369,3.74
				C298.988,292.228,298.958,293.253,300.003,293.883z"/>
			<path style="fill:#7798D9;" d="M311.9,301.058l6.542,3.945c1.065,0.642,2.81,0.641,3.896-0.004l6.406-3.803
				c1.082-0.642,1.092-1.68,0.023-2.318l-6.559-3.915c-1.06-0.633-2.793-0.629-3.872,0.008l-6.389,3.774
				C310.865,299.386,310.843,300.421,311.9,301.058z"/>
			<path style="fill:#7798D9;" d="M323.943,308.321l6.622,3.994c1.078,0.65,2.837,0.65,3.926,0l6.426-3.838
				c1.085-0.648,1.087-1.697,0.006-2.342l-6.639-3.963c-1.073-0.64-2.819-0.638-3.901,0.005l-6.409,3.808
				C322.887,306.629,322.873,307.676,323.943,308.321z"/>
			<path style="fill:#7798D9;" d="M336.132,315.672l6.703,4.043c1.092,0.658,2.863,0.66,3.956,0.004l6.446-3.873
				c1.089-0.654,1.083-1.714-0.012-2.367l-6.72-4.012c-1.086-0.648-2.845-0.647-3.931,0.001l-6.429,3.843
				C335.056,313.962,335.049,315.019,336.132,315.672z"/>
			<path style="fill:#7798D9;" d="M348.471,323.114l6.786,4.092c1.105,0.667,2.891,0.67,3.987,0.008l6.466-3.909
				c1.092-0.66,1.078-1.731-0.03-2.393l-6.803-4.061c-1.099-0.656-2.872-0.657-3.961-0.002l-6.449,3.878
				C347.373,321.384,347.375,322.453,348.471,323.114z"/>
			<path style="fill:#7798D9;" d="M360.963,330.647l6.87,4.143c1.119,0.675,2.918,0.68,4.018,0.011l6.486-3.945
				c1.095-0.666,1.072-1.749-0.049-2.419l-6.888-4.111c-1.113-0.664-2.899-0.667-3.992-0.006l-6.469,3.914
				C359.843,328.898,359.853,329.978,360.963,330.647z"/>
			<path style="fill:#7798D9;" d="M391.053,336.058l-6.974-4.163c-1.127-0.673-2.927-0.677-4.023-0.01l-6.489,3.95
				c-1.1,0.67-1.082,1.761,0.042,2.439l6.956,4.195c1.133,0.683,2.947,0.69,4.049,0.015l6.506-3.982
				C392.22,337.831,392.189,336.736,391.053,336.058z"/>
			<path style="fill:#7798D9;" d="M420.293,353.512l-23.376-13.954c-1.141-0.681-2.955-0.687-4.054-0.014l-6.509,3.987
				c-1.103,0.676-1.077,1.78,0.062,2.466l23.319,14.063c1.165,0.703,3.011,0.714,4.122,0.025l6.551-4.067
				C421.513,355.332,421.461,354.209,420.293,353.512z"/>
			<path style="fill:#7798D9;" d="M444.185,338.328l-7.209-4.203c-1.165-0.679-2.991-0.684-4.081-0.011l-6.455,3.985
				c-1.094,0.675-1.04,1.777,0.122,2.462l7.193,4.236c1.172,0.69,3.012,0.697,4.108,0.017l6.472-4.018
				C445.426,340.117,445.359,339.012,444.185,338.328z"/>
			<path style="fill:#7798D9;" d="M324.953,255.281l-6.366-3.668c-1.029-0.593-2.713-0.58-3.763,0.029l-6.218,3.604
				c-1.054,0.611-1.077,1.59-0.051,2.187l6.35,3.696c1.034,0.602,2.729,0.591,3.786-0.024l6.234-3.631
				C325.978,256.86,325.99,255.879,324.953,255.281z"/>
			<path style="fill:#7798D9;" d="M336.769,262.09l-6.441-3.712c-1.041-0.6-2.738-0.588-3.791,0.026l-6.237,3.635
				c-1.057,0.616-1.073,1.605-0.035,2.21l6.425,3.74c1.046,0.609,2.755,0.6,3.814-0.021l6.253-3.663
				C337.813,263.686,337.818,262.694,336.769,262.09z"/>
			<path style="fill:#7798D9;" d="M348.726,268.98l-6.518-3.756c-1.053-0.607-2.763-0.597-3.819,0.023l-6.256,3.668
				c-1.06,0.622-1.069,1.621-0.018,2.233l6.502,3.784c1.059,0.616,2.78,0.608,3.843-0.018l6.272-3.696
				C349.79,270.593,349.787,269.591,348.726,268.98z"/>
			<path style="fill:#7798D9;" d="M360.826,275.952l-6.596-3.801c-1.066-0.614-2.788-0.605-3.848,0.019l-6.275,3.7
				c-1.063,0.627-1.065,1.637-0.001,2.256l6.58,3.83c1.071,0.624,2.806,0.617,3.872-0.015l6.291-3.729
				C361.91,277.583,361.9,276.571,360.826,275.952z"/>
			<path style="fill:#7798D9;" d="M373.071,283.008l-6.676-3.847c-1.079-0.622-2.814-0.614-3.876,0.016l-6.294,3.733
				c-1.067,0.633-1.06,1.653,0.016,2.28l6.659,3.876c1.084,0.631,2.832,0.626,3.901-0.011l6.31-3.762
				C374.177,284.657,374.158,283.634,373.071,283.008z"/>
			<path style="fill:#7798D9;" d="M385.465,290.15l-6.757-3.894c-1.092-0.629-2.84-0.623-3.906,0.013l-6.313,3.767
				c-1.07,0.638-1.055,1.67,0.034,2.304l6.74,3.923c1.098,0.639,2.858,0.635,3.931-0.008l6.329-3.796
				C386.592,291.818,386.565,290.784,385.465,290.15z"/>
			<path style="fill:#7798D9;" d="M398.01,297.378l-6.84-3.941c-1.105-0.637-2.867-0.633-3.936,0.009l-6.332,3.801
				c-1.073,0.644-1.05,1.686,0.052,2.328l6.823,3.972c1.111,0.647,2.885,0.645,3.961-0.004l6.348-3.831
				C399.159,299.065,399.124,298.02,398.01,297.378z"/>
			<path style="fill:#7798D9;" d="M410.709,304.696l-6.924-3.99c-1.119-0.645-2.894-0.642-3.966,0.006l-6.35,3.836
				c-1.076,0.65-1.045,1.704,0.071,2.353l6.907,4.02c1.125,0.655,2.913,0.655,3.992-0.001l6.367-3.866
				C411.88,306.402,411.836,305.346,410.709,304.696z"/>
			<path style="fill:#7798D9;" d="M413.272,318.387c1.139,0.663,2.941,0.664,4.023,0.003l6.386-3.902
				c1.078-0.659,1.026-1.727-0.116-2.384l-7.009-4.039c-1.132-0.653-2.921-0.652-3.997,0.002l-6.369,3.871
				c-1.079,0.656-1.04,1.721,0.09,2.379L413.272,318.387z"/>
			<path style="fill:#7798D9;" d="M436.58,319.603l-7.096-4.089c-1.147-0.661-2.949-0.661-4.028-0.001l-6.388,3.907
				c-1.083,0.662-1.034,1.738,0.109,2.404l7.08,4.121c1.153,0.671,2.969,0.674,4.054,0.007l6.405-3.938
				C437.797,321.349,437.736,320.27,436.58,319.603z"/>
			<path style="fill:#7798D9;" d="M457.251,331.514l-15.115-8.71c-0.74-0.426-1.898-0.428-2.587-0.003l-7.831,4.82
				c-0.692,0.426-0.656,1.12,0.082,1.549l15.08,8.778c0.749,0.436,1.921,0.44,2.616,0.008l7.862-4.882
				C458.05,332.647,458.002,331.947,457.251,331.514z"/>
		</g>
		<g>
			<path style="fill:#FFF8FF;" d="M285.363,230.184l6.686,3.847c0.802,0.461,2.129,0.448,2.962-0.029l3.399-1.947
				c0.832-0.477,0.855-1.235,0.051-1.694l-6.698-3.828c-0.797-0.456-2.115-0.441-2.945,0.032l-3.39,1.933
				C284.597,228.971,284.567,229.726,285.363,230.184z"/>
			<path style="fill:#FFF8FF;" d="M297.158,236.97l6.767,3.893c0.812,0.467,2.148,0.455,2.985-0.027l3.41-1.964
				c0.835-0.481,0.852-1.247,0.039-1.712l-6.779-3.875c-0.807-0.461-2.135-0.448-2.968,0.029l-3.401,1.95
				C296.376,235.743,296.352,236.507,297.158,236.97z"/>
			<path style="fill:#FFF8FF;" d="M309.095,243.838l6.85,3.941c0.821,0.473,2.168,0.462,3.007-0.024l3.42-1.982
				c0.837-0.485,0.848-1.26,0.025-1.73l-6.861-3.922c-0.817-0.467-2.155-0.455-2.99,0.027l-3.412,1.967
				C308.299,242.598,308.28,243.369,309.095,243.838z"/>
			<path style="fill:#FFF8FF;" d="M321.179,250.79l6.934,3.989c0.832,0.478,2.189,0.469,3.03-0.022l3.431-2
				c0.84-0.49,0.845-1.272,0.012-1.749l-6.945-3.97c-0.827-0.473-2.175-0.461-3.013,0.025l-3.422,1.985
				C320.366,249.536,320.354,250.315,321.179,250.79z"/>
			<path style="fill:#FFF8FF;" d="M333.411,257.827l7.019,4.038c0.842,0.484,2.21,0.476,3.054-0.019l3.442-2.018
				c0.842-0.494,0.841-1.285-0.002-1.767l-7.03-4.019c-0.837-0.478-2.195-0.468-3.036,0.022l-3.433,2.003
				C332.582,256.559,332.575,257.347,333.411,257.827z"/>
			<path style="fill:#FFF8FF;" d="M345.793,264.951l7.106,4.088c0.852,0.49,2.23,0.483,3.077-0.017l3.453-2.037
				c0.845-0.499,0.837-1.298-0.016-1.786l-7.118-4.068c-0.847-0.484-2.216-0.475-3.059,0.02l-3.444,2.021
				C344.948,263.668,344.948,264.465,345.793,264.951z"/>
			<path style="fill:#FFF8FF;" d="M358.33,272.164l7.195,4.139c0.863,0.496,2.252,0.49,3.102-0.014l3.463-2.055
				c0.848-0.503,0.833-1.312-0.031-1.806l-7.206-4.119c-0.858-0.49-2.238-0.483-3.083,0.017l-3.454,2.04
				C357.467,270.866,357.474,271.671,358.33,272.164z"/>
			<path style="fill:#FFF8FF;" d="M371.023,279.467l7.285,4.191c0.874,0.503,2.274,0.498,3.126-0.011l3.474-2.075
				c0.85-0.508,0.829-1.325-0.046-1.826l-7.297-4.171c-0.868-0.496-2.259-0.49-3.107,0.014l-3.465,2.059
				C370.144,278.154,370.156,278.968,371.023,279.467z"/>
			<path style="fill:#FFF8FF;" d="M383.877,286.861l7.377,4.244c0.885,0.509,2.296,0.505,3.151-0.008l3.485-2.094
				c0.853-0.513,0.825-1.339-0.061-1.846l-7.389-4.223c-0.879-0.503-2.281-0.497-3.132,0.011l-3.476,2.078
				C382.979,285.534,382.999,286.356,383.877,286.861z"/>
			<path style="fill:#FFF8FF;" d="M396.892,294.35l7.471,4.298c0.896,0.516,2.319,0.513,3.176-0.005l3.495-2.114
				c0.856-0.517,0.821-1.353-0.077-1.866l-7.483-4.277c-0.89-0.509-2.303-0.505-3.157,0.008l-3.487,2.098
				C395.977,293.007,396.003,293.838,396.892,294.35z"/>
			<path style="fill:#FFF8FF;" d="M410.074,301.934l7.567,4.353c0.908,0.522,2.342,0.521,3.202-0.002l3.506-2.134
				c0.858-0.522,0.816-1.367-0.093-1.887l-7.578-4.332c-0.902-0.515-2.326-0.513-3.182,0.005l-3.497,2.118
				C409.14,300.574,409.174,301.415,410.074,301.934z"/>
			<path style="fill:#FFF8FF;" d="M423.425,309.614l7.664,4.41c0.92,0.529,2.365,0.529,3.228,0.001l3.517-2.155
				c0.861-0.527,0.811-1.382-0.109-1.908l-7.676-4.387c-0.913-0.522-2.349-0.521-3.208,0.003l-3.508,2.138
				C422.472,308.24,422.513,309.09,423.425,309.614z"/>
			<path style="fill:#FFF8FF;" d="M436.948,317.395l7.764,4.467c0.931,0.536,2.389,0.538,3.254,0.004l3.527-2.176
				c0.863-0.533,0.806-1.397-0.126-1.93l-7.775-4.444c-0.925-0.529-2.372-0.529-3.234-0.001l-3.519,2.159
				C435.976,316.003,436.024,316.863,436.948,317.395z"/>
			<path style="fill:#FFF8FF;" d="M465.188,325.659l-7.877-4.502c-0.937-0.536-2.396-0.537-3.26-0.004l-3.53,2.18
				c-0.866,0.535-0.81,1.404,0.126,1.943l7.865,4.525c0.944,0.543,2.413,0.546,3.281,0.007l3.538-2.197
				C466.198,327.074,466.133,326.2,465.188,325.659z"/>
			<path style="fill:#FFF8FF;" d="M274.237,236.943l6.131,3.569c0.998,0.581,2.657,0.566,3.704-0.033l6.177-3.538
				c1.043-0.597,1.076-1.55,0.076-2.126l-6.147-3.542c-0.994-0.573-2.642-0.556-3.682,0.038l-6.161,3.512
				C273.291,235.416,273.246,236.366,274.237,236.943z"/>
			<path style="fill:#FFF8FF;" d="M301.734,241.387l-6.219-3.583c-1.005-0.579-2.665-0.564-3.709,0.035l-6.18,3.542
				c-1.047,0.6-1.085,1.56-0.082,2.143l6.203,3.61c1.01,0.588,2.681,0.574,3.731-0.031l6.196-3.569
				C302.72,242.933,302.746,241.971,301.734,241.387z"/>
			<path style="fill:#FFF8FF;" d="M313.276,248.038l-6.292-3.626c-1.017-0.586-2.689-0.572-3.736,0.032l-6.199,3.573
				c-1.05,0.605-1.081,1.575-0.067,2.165l6.275,3.653c1.022,0.595,2.705,0.583,3.758-0.027l6.215-3.6
				C314.281,249.6,314.3,248.628,313.276,248.038z"/>
			<path style="fill:#FFF8FF;" d="M279.709,253.556l6.22,3.663c1.013,0.596,2.692,0.585,3.75-0.026l6.241-3.605
				c1.054-0.609,1.084-1.582,0.069-2.174l-6.237-3.636c-1.008-0.588-2.676-0.574-3.727,0.03l-6.224,3.578
				C278.745,251.992,278.703,252.964,279.709,253.556z"/>
			<path style="fill:#FFF8FF;" d="M262.689,243.532l11.407,6.718c1,0.589,2.667,0.576,3.721-0.029l6.221-3.573
				c1.051-0.603,1.088-1.567,0.085-2.151l-11.439-6.669c-0.991-0.577-2.64-0.562-3.687,0.035l-6.195,3.532
				C261.753,241.993,261.702,242.95,262.689,243.532z"/>
			<path style="fill:#FFF8FF;" d="M307.54,258.149l-6.31-3.679c-1.02-0.594-2.7-0.582-3.754,0.027l-6.243,3.609
				c-1.058,0.612-1.093,1.593-0.076,2.192l6.293,3.706c1.025,0.604,2.716,0.594,3.777-0.023l6.26-3.636
				C308.544,259.732,308.567,258.748,307.54,258.149z"/>
			<path style="fill:#FFF8FF;" d="M319.229,264.964l-6.385-3.722c-1.032-0.601-2.724-0.591-3.782,0.024l-6.263,3.64
				c-1.061,0.617-1.089,1.608-0.06,2.214l6.368,3.75c1.037,0.611,2.741,0.602,3.805-0.02l6.279-3.668
				C320.253,266.563,320.268,265.57,319.229,264.964z"/>
			<path style="fill:#FFF8FF;" d="M331.056,271.859l-6.46-3.767c-1.044-0.609-2.749-0.599-3.81,0.021l-6.282,3.672
				c-1.065,0.622-1.085,1.624-0.043,2.237l6.444,3.795c1.049,0.618,2.766,0.611,3.834-0.016l6.298-3.7
				C332.1,273.477,332.108,272.473,331.056,271.859z"/>
			<path style="fill:#FFF8FF;" d="M343.025,278.837l-6.538-3.811c-1.056-0.616-2.774-0.608-3.838,0.018l-6.301,3.705
				c-1.068,0.628-1.081,1.64-0.027,2.26l6.521,3.841c1.062,0.625,2.792,0.62,3.862-0.013l6.318-3.734
				C344.089,280.472,344.09,279.458,343.025,278.837z"/>
			<path style="fill:#FFF8FF;" d="M355.138,285.899l-6.617-3.857c-1.069-0.623-2.8-0.617-3.867,0.014l-6.32,3.738
				c-1.071,0.633-1.076,1.656-0.01,2.284l6.6,3.887c1.075,0.633,2.818,0.629,3.892-0.01l6.337-3.767
				C356.223,287.552,356.215,286.527,355.138,285.899z"/>
			<path style="fill:#FFF8FF;" d="M367.397,293.046l-6.697-3.904c-1.082-0.631-2.826-0.626-3.896,0.011l-6.339,3.772
				c-1.074,0.639-1.072,1.672,0.008,2.308l6.68,3.934c1.088,0.641,2.844,0.638,3.921-0.006l6.356-3.801
				C368.503,294.718,368.488,293.682,367.397,293.046z"/>
			<path style="fill:#FFF8FF;" d="M379.806,300.28l-6.778-3.952c-1.095-0.639-2.852-0.635-3.926,0.008l-6.359,3.806
				c-1.078,0.645-1.067,1.689,0.026,2.333l6.761,3.982c1.101,0.648,2.871,0.647,3.951-0.003l6.376-3.836
				C380.933,301.971,380.91,300.924,379.806,300.28z"/>
			<path style="fill:#FFF8FF;" d="M375.215,309.805l6.844,4.031c1.115,0.656,2.898,0.657,3.982,0.001l6.395-3.871
				c1.08-0.654,1.048-1.712-0.069-2.363l-6.861-4c-1.109-0.647-2.879-0.645-3.956,0.004l-6.378,3.84
				C374.09,308.098,374.109,309.154,375.215,309.805z"/>
			<path style="fill:#FFF8FF;" d="M405.17,317.405c1.083-0.66,1.043-1.729-0.089-2.389l-6.946-4.049
				c-1.122-0.654-2.906-0.654-3.987,0l-6.397,3.876c-1.084,0.657-1.057,1.724,0.063,2.383l6.929,4.081
				c1.128,0.665,2.926,0.667,4.013,0.005L405.17,317.405z"/>
			<path style="fill:#FFF8FF;" d="M418.063,324.936c1.086-0.666,1.037-1.747-0.108-2.415l-7.032-4.1
				c-1.136-0.663-2.934-0.664-4.018-0.003l-6.417,3.911c-1.088,0.663-1.052,1.741,0.082,2.409l7.015,4.132
				c1.142,0.673,2.954,0.677,4.044,0.009L418.063,324.936z"/>
			<path style="fill:#FFF8FF;" d="M413.485,332.345l7.103,4.184c1.157,0.681,2.982,0.687,4.076,0.013l6.452-3.98
				c1.09-0.672,1.031-1.765-0.128-2.441l-7.12-4.151c-1.15-0.671-2.963-0.674-4.049-0.007l-6.436,3.948
				C412.292,330.579,412.337,331.669,413.485,332.345z"/>
			<path style="fill:#FFF8FF;" d="M271.057,259.812c-1.062,0.611-1.109,1.592-0.104,2.191l6.219,3.706
				c1.013,0.603,2.697,0.594,3.762-0.022l6.281-3.633c1.061-0.613,1.096-1.596,0.081-2.195l-6.236-3.678
				c-1.008-0.595-2.681-0.583-3.739,0.026L271.057,259.812z"/>
			<path style="fill:#FFF8FF;" d="M251.077,250.157l14.436,8.603c1,0.596,2.673,0.585,3.734-0.025l6.261-3.601
				c1.057-0.608,1.1-1.581,0.097-2.173l-14.476-8.54c-0.987-0.582-2.639-0.568-3.691,0.032l-6.23,3.551
				C250.152,248.607,250.093,249.571,251.077,250.157z"/>
			<path style="fill:#FFF8FF;" d="M282.488,266.611c-1.065,0.616-1.105,1.607-0.088,2.213l6.292,3.75
				c1.025,0.611,2.722,0.602,3.79-0.019l6.301-3.665c1.064-0.619,1.093-1.612,0.065-2.218l-6.31-3.722
				c-1.02-0.602-2.705-0.591-3.766,0.023L282.488,266.611z"/>
			<path style="fill:#FFF8FF;" d="M293.981,275.727l6.367,3.795c1.037,0.618,2.747,0.611,3.818-0.016l6.32-3.697
				c1.067-0.624,1.089-1.628,0.049-2.241l-6.384-3.766c-1.032-0.609-2.73-0.599-3.794,0.02l-6.303,3.669
				C292.986,274.113,292.952,275.114,293.981,275.727z"/>
			<path style="fill:#FFF8FF;" d="M305.701,282.711l6.443,3.84c1.049,0.625,2.772,0.62,3.846-0.012l6.34-3.73
				c1.071-0.63,1.084-1.644,0.032-2.264l-6.461-3.811c-1.044-0.616-2.755-0.608-3.822,0.017l-6.323,3.702
				C304.686,281.079,304.66,282.091,305.701,282.711z"/>
			<path style="fill:#FFF8FF;" d="M317.562,289.78l6.521,3.886c1.062,0.633,2.798,0.629,3.875-0.009l6.359-3.763
				c1.074-0.636,1.08-1.66,0.015-2.288l-6.538-3.857c-1.056-0.623-2.78-0.617-3.851,0.014l-6.342,3.734
				C316.526,288.13,316.508,289.152,317.562,289.78z"/>
			<path style="fill:#FFF8FF;" d="M329.565,296.934l6.6,3.933c1.075,0.641,2.824,0.638,3.905-0.005l6.379-3.798
				c1.077-0.641,1.076-1.677-0.002-2.312l-6.617-3.904c-1.069-0.631-2.806-0.626-3.88,0.01l-6.362,3.768
				C328.51,295.265,328.499,296.298,329.565,296.934z"/>
			<path style="fill:#FFF8FF;" d="M341.715,304.174l6.681,3.981c1.088,0.648,2.85,0.648,3.934-0.002l6.398-3.832
				c1.08-0.647,1.071-1.693-0.02-2.337l-6.698-3.951c-1.082-0.639-2.832-0.635-3.91,0.007l-6.381,3.802
				C340.638,302.487,340.635,303.531,341.715,304.174z"/>
			<path style="fill:#FFF8FF;" d="M354.012,311.503l6.763,4.03c1.101,0.656,2.877,0.657,3.965,0.002l6.418-3.867
				c1.084-0.653,1.066-1.711-0.038-2.362l-6.78-3.999c-1.095-0.646-2.859-0.645-3.939,0.003L354,309.147
				C352.915,309.797,352.92,310.852,354.012,311.503z"/>
			<path style="fill:#FFF8FF;" d="M366.461,318.922l6.846,4.08c1.115,0.665,2.904,0.667,3.996,0.006l6.438-3.903
				c1.087-0.659,1.061-1.728-0.057-2.387l-6.863-4.049c-1.109-0.654-2.885-0.654-3.97,0l-6.42,3.872
				C365.342,317.197,365.355,318.263,366.461,318.922z"/>
			<path style="fill:#FFF8FF;" d="M379.064,326.433l6.931,4.131c1.129,0.673,2.932,0.677,4.027,0.009l6.457-3.939
				c1.09-0.665,1.056-1.746-0.076-2.413l-6.948-4.099c-1.123-0.662-2.913-0.664-4.001-0.004l-6.44,3.908
				C377.923,324.688,377.944,325.766,379.064,326.433z"/>
			<path style="fill:#FFF8FF;" d="M402.9,338.233l6.477-3.976c1.094-0.671,1.05-1.764-0.096-2.44l-7.035-4.15
				c-1.137-0.671-2.941-0.674-4.032-0.008l-6.46,3.944c-1.095,0.668-1.064,1.758,0.069,2.434l7.018,4.182
				C399.985,338.901,401.802,338.907,402.9,338.233z"/>
			<path style="fill:#FFF8FF;" d="M432.124,345.293l-16.771-9.893c-1.151-0.679-2.97-0.684-4.064-0.012l-6.479,3.982
				c-1.098,0.675-1.059,1.776,0.089,2.461l16.731,9.971c1.168,0.696,3.011,0.705,4.115,0.02l6.511-4.042
				C433.355,347.097,433.296,345.984,432.124,345.293z"/>
			<path style="fill:#FFF8FF;" d="M265.15,272.35l6.237,3.761c1.016,0.612,2.709,0.605,3.781-0.017l6.327-3.67
				c1.069-0.62,1.108-1.615,0.09-2.223l-6.254-3.733c-1.011-0.603-2.693-0.594-3.758,0.022l-6.31,3.643
				C264.193,270.749,264.142,271.742,265.15,272.35z"/>
			<path style="fill:#FFF8FF;" d="M244.148,262.021l-7.288-4.404c-0.645-0.39-1.735-0.382-2.435,0.017l-9.26,5.279
				c-0.704,0.401-0.753,1.045-0.11,1.438l7.263,4.442c0.648,0.397,1.746,0.391,2.452-0.013l9.286-5.319
				C244.757,263.059,244.798,262.414,244.148,262.021z"/>
			<path style="fill:#FFF8FF;" d="M255.44,268.845l-7.374-4.456c-0.653-0.395-1.751-0.388-2.453,0.015l-9.29,5.325
				c-0.706,0.405-0.751,1.055-0.1,1.453l7.349,4.495c0.656,0.401,1.762,0.396,2.47-0.011l9.316-5.366
				C256.062,269.894,256.098,269.243,255.44,268.845z"/>
			<path style="fill:#FFF8FF;" d="M266.866,275.75l-7.461-4.509c-0.66-0.399-1.767-0.393-2.471,0.013l-9.32,5.372
				c-0.708,0.408-0.749,1.065-0.09,1.468l7.436,4.548c0.664,0.406,1.778,0.402,2.488-0.009l9.345-5.413
				C267.5,276.81,267.533,276.152,266.866,275.75z"/>
			<path style="fill:#FFF8FF;" d="M281.088,284.344l-10.21-6.17c-0.668-0.404-1.783-0.399-2.489,0.011l-9.35,5.42
				c-0.71,0.412-0.746,1.076-0.08,1.483l10.176,6.224c0.674,0.412,1.798,0.409,2.511-0.007l9.382-5.472
				C281.738,285.419,281.764,284.753,281.088,284.344z"/>
			<path style="fill:#FFF8FF;" d="M356.763,330.075l-11.014-6.656c-0.721-0.436-1.889-0.437-2.61-0.004l-9.536,5.734
				c-0.724,0.436-0.73,1.145-0.011,1.585l10.98,6.716c0.727,0.445,1.906,0.448,2.633,0.008l9.569-5.793
				C357.498,331.228,357.492,330.516,356.763,330.075z"/>
			<path style="fill:#FFF8FF;" d="M369.492,337.768l-8.138-4.918c-0.732-0.442-1.912-0.445-2.635-0.007l-9.574,5.801
				c-0.727,0.441-0.726,1.16,0.004,1.606l8.114,4.963c0.736,0.45,1.925,0.455,2.654,0.011l9.599-5.847
				C370.242,338.934,370.231,338.214,369.492,337.768z"/>
			<path style="fill:#FFF8FF;" d="M376.293,349.331l-8.229-5.003c-0.74-0.45-1.93-0.455-2.658-0.011l-3.489,2.128
				c-0.73,0.445-0.722,1.172,0.017,1.624l8.217,5.026c0.746,0.456,1.944,0.462,2.675,0.014l3.499-2.145
				C377.054,350.516,377.04,349.785,376.293,349.331z"/>
			<path style="fill:#FFF8FF;" d="M402.417,365.213l-8.44-5.131c-0.759-0.462-1.968-0.469-2.701-0.016l-3.511,2.168
				c-0.734,0.453-0.716,1.197,0.042,1.66l8.428,5.155c0.765,0.468,1.982,0.476,2.719,0.019l3.52-2.186
				C403.208,366.426,403.183,365.678,402.417,365.213z"/>
			<path style="fill:#FFF8FF;" d="M389.272,357.222l-8.333-5.066c-0.75-0.456-1.949-0.462-2.679-0.014l-3.5,2.148
				c-0.732,0.449-0.719,1.184,0.029,1.642l8.321,5.089c0.755,0.462,1.963,0.469,2.697,0.017l3.51-2.165
				C390.048,358.421,390.029,357.681,389.272,357.222z"/>
			<path style="fill:#FFF8FF;" d="M381.619,351.737l8.335,5.064c0.756,0.46,1.963,0.466,2.694,0.015l3.498-2.158
				c0.73-0.45,0.707-1.186-0.051-1.644l-8.347-5.041c-0.751-0.454-1.949-0.459-2.677-0.012l-3.488,2.141
				C380.854,350.55,380.87,351.282,381.619,351.737z"/>
			<path style="fill:#FFF8FF;" d="M340.855,320.462l-55.744-33.687c-0.678-0.41-1.803-0.406-2.512,0.008l-9.386,5.479
				c-0.713,0.416-0.743,1.089-0.068,1.502l55.568,33.986c0.716,0.438,1.883,0.44,2.607,0.005l9.531-5.724
				C341.572,321.599,341.573,320.896,340.855,320.462z"/>
			<path style="fill:#FFF8FF;" d="M239.4,256.82l19.805,11.945c1.003,0.605,2.683,0.596,3.752-0.021l6.306-3.636
				c1.065-0.614,1.112-1.599,0.106-2.199l-19.862-11.856c-0.984-0.587-2.638-0.574-3.696,0.029l-6.265,3.571
				C238.485,255.258,238.419,256.228,239.4,256.82z"/>
			<path style="fill:#FFF8FF;" d="M276.63,279.273l6.311,3.806c1.028,0.62,2.734,0.613,3.809-0.014l6.347-3.703
				c1.072-0.625,1.104-1.631,0.074-2.246l-6.328-3.778c-1.023-0.611-2.717-0.602-3.786,0.018l-6.329,3.674
				C275.654,277.655,275.61,278.658,276.63,279.273z"/>
			<path style="fill:#FFF8FF;" d="M288.247,286.279l6.387,3.852c1.04,0.627,2.759,0.622,3.838-0.011l6.367-3.736
				c1.075-0.631,1.1-1.647,0.057-2.269l-6.404-3.823c-1.035-0.618-2.742-0.611-3.814,0.015l-6.35,3.707
				C287.251,284.643,287.215,285.656,288.247,286.279z"/>
			<path style="fill:#FFF8FF;" d="M300.003,293.369l6.464,3.898c1.052,0.635,2.784,0.632,3.867-0.007l6.387-3.769
				c1.078-0.637,1.096-1.663,0.041-2.293l-6.481-3.869c-1.047-0.625-2.767-0.62-3.843,0.012l-6.369,3.74
				C298.988,291.715,298.958,292.739,300.003,293.369z"/>
			<path style="fill:#FFF8FF;" d="M311.9,300.544l6.542,3.945c1.065,0.642,2.81,0.641,3.896-0.004l6.406-3.803
				c1.082-0.642,1.092-1.68,0.023-2.318l-6.559-3.916c-1.06-0.633-2.793-0.629-3.872,0.009l-6.389,3.774
				C310.865,298.871,310.843,299.907,311.9,300.544z"/>
			<path style="fill:#FFF8FF;" d="M323.943,307.807l6.622,3.993c1.078,0.65,2.837,0.65,3.926,0l6.426-3.838
				c1.085-0.648,1.087-1.697,0.006-2.342l-6.639-3.963c-1.073-0.64-2.819-0.638-3.901,0.005l-6.409,3.808
				C322.887,306.115,322.873,307.161,323.943,307.807z"/>
			<path style="fill:#FFF8FF;" d="M336.132,315.158l6.703,4.043c1.092,0.658,2.863,0.66,3.956,0.004l6.446-3.873
				c1.089-0.654,1.083-1.714-0.012-2.367l-6.72-4.012c-1.086-0.648-2.845-0.647-3.931,0.001l-6.429,3.843
				C335.056,313.448,335.049,314.505,336.132,315.158z"/>
			<path style="fill:#FFF8FF;" d="M348.471,322.6l6.786,4.092c1.105,0.666,2.891,0.67,3.987,0.007l6.466-3.909
				c1.092-0.66,1.078-1.731-0.03-2.393l-6.803-4.061c-1.099-0.656-2.872-0.657-3.961-0.002l-6.449,3.878
				C347.373,320.87,347.375,321.939,348.471,322.6z"/>
			<path style="fill:#FFF8FF;" d="M360.963,330.133l6.87,4.143c1.119,0.675,2.918,0.68,4.018,0.011l6.486-3.945
				c1.095-0.666,1.072-1.749-0.049-2.419l-6.888-4.111c-1.113-0.664-2.899-0.667-3.992-0.006l-6.469,3.914
				C359.843,328.384,359.853,329.464,360.963,330.133z"/>
			<path style="fill:#FFF8FF;" d="M391.053,335.544l-6.974-4.163c-1.127-0.672-2.927-0.677-4.023-0.01l-6.489,3.95
				c-1.1,0.669-1.082,1.761,0.042,2.439l6.956,4.195c1.133,0.683,2.947,0.69,4.049,0.015l6.506-3.982
				C392.22,337.317,392.189,336.222,391.053,335.544z"/>
			<path style="fill:#FFF8FF;" d="M420.293,352.998l-23.376-13.954c-1.141-0.681-2.955-0.687-4.054-0.014l-6.509,3.987
				c-1.103,0.676-1.077,1.78,0.062,2.466l23.319,14.063c1.165,0.703,3.011,0.714,4.122,0.025l6.551-4.067
				C421.513,354.818,421.461,353.695,420.293,352.998z"/>
			<path style="fill:#FFF8FF;" d="M444.185,337.814l-7.209-4.203c-1.165-0.679-2.991-0.684-4.081-0.011l-6.455,3.985
				c-1.094,0.675-1.04,1.777,0.122,2.462l7.193,4.236c1.172,0.69,3.012,0.698,4.108,0.017l6.472-4.018
				C445.426,339.603,445.359,338.498,444.185,337.814z"/>
			<path style="fill:#FFF8FF;" d="M324.953,254.767l-6.366-3.668c-1.029-0.593-2.713-0.58-3.763,0.029l-6.218,3.604
				c-1.054,0.611-1.077,1.59-0.051,2.187l6.35,3.696c1.034,0.602,2.729,0.591,3.786-0.024l6.234-3.631
				C325.978,256.346,325.99,255.365,324.953,254.767z"/>
			<path style="fill:#FFF8FF;" d="M336.769,261.576l-6.441-3.712c-1.041-0.6-2.738-0.588-3.791,0.026l-6.237,3.635
				c-1.057,0.616-1.073,1.605-0.035,2.21l6.425,3.74c1.046,0.609,2.755,0.6,3.814-0.021l6.253-3.663
				C337.813,263.172,337.818,262.18,336.769,261.576z"/>
			<path style="fill:#FFF8FF;" d="M348.726,268.466l-6.518-3.756c-1.053-0.607-2.763-0.597-3.819,0.023l-6.256,3.668
				c-1.06,0.622-1.069,1.621-0.018,2.233l6.502,3.784c1.059,0.616,2.78,0.608,3.843-0.018l6.272-3.696
				C349.79,270.079,349.787,269.077,348.726,268.466z"/>
			<path style="fill:#FFF8FF;" d="M360.826,275.438l-6.596-3.801c-1.066-0.614-2.788-0.605-3.848,0.019l-6.275,3.7
				c-1.063,0.627-1.065,1.637-0.001,2.256l6.58,3.83c1.071,0.624,2.806,0.617,3.872-0.015l6.291-3.729
				C361.91,277.069,361.9,276.057,360.826,275.438z"/>
			<path style="fill:#FFF8FF;" d="M373.071,282.494l-6.676-3.847c-1.079-0.622-2.814-0.614-3.876,0.016l-6.294,3.733
				c-1.067,0.633-1.06,1.653,0.016,2.28l6.659,3.876c1.084,0.631,2.832,0.626,3.901-0.011l6.31-3.762
				C374.177,284.143,374.158,283.12,373.071,282.494z"/>
			<path style="fill:#FFF8FF;" d="M385.465,289.636l-6.757-3.894c-1.092-0.629-2.84-0.623-3.906,0.013l-6.313,3.767
				c-1.07,0.638-1.055,1.67,0.034,2.304l6.74,3.923c1.098,0.639,2.858,0.635,3.931-0.008l6.329-3.796
				C386.592,291.303,386.565,290.27,385.465,289.636z"/>
			<path style="fill:#FFF8FF;" d="M398.01,296.864l-6.84-3.941c-1.105-0.637-2.867-0.633-3.936,0.009l-6.332,3.801
				c-1.073,0.644-1.05,1.686,0.052,2.328l6.823,3.972c1.111,0.647,2.885,0.645,3.961-0.004l6.348-3.831
				C399.159,298.551,399.124,297.506,398.01,296.864z"/>
			<path style="fill:#FFF8FF;" d="M410.709,304.182l-6.924-3.99c-1.119-0.645-2.894-0.642-3.966,0.006l-6.35,3.836
				c-1.076,0.65-1.045,1.703,0.071,2.353l6.907,4.02c1.125,0.655,2.913,0.655,3.992-0.001l6.367-3.866
				C411.88,305.888,411.836,304.832,410.709,304.182z"/>
			<path style="fill:#FFF8FF;" d="M413.272,317.873c1.139,0.663,2.941,0.664,4.023,0.003l6.386-3.902
				c1.078-0.659,1.026-1.727-0.116-2.384l-7.009-4.039c-1.132-0.653-2.921-0.652-3.997,0.002l-6.369,3.871
				c-1.079,0.656-1.04,1.721,0.09,2.379L413.272,317.873z"/>
			<path style="fill:#FFF8FF;" d="M436.58,319.09L429.484,315c-1.147-0.661-2.949-0.661-4.028-0.001l-6.388,3.907
				c-1.083,0.662-1.034,1.738,0.109,2.404l7.08,4.121c1.153,0.671,2.969,0.674,4.054,0.007l6.405-3.938
				C437.797,320.835,437.736,319.755,436.58,319.09z"/>
			<path style="fill:#FFF8FF;" d="M457.251,331l-15.115-8.71c-0.74-0.426-1.898-0.428-2.587-0.003l-7.831,4.82
				c-0.692,0.426-0.656,1.12,0.082,1.549l15.08,8.778c0.749,0.436,1.921,0.44,2.616,0.008l7.862-4.882
				C458.05,332.133,458.002,331.433,457.251,331z"/>
		</g>
	</g>
	<g>
		<g>
			<g style="opacity:0.3;">
				<path style="fill:#B3B3B3;" d="M259.292,364.322l-13.89-8.02l-10.331,3.732c-4.507-1.57-9.325-2.712-14.279-3.422l-2.804-6.877
					l-19.588-0.005l-2.717,6.882c-4.964,0.71-9.76,1.858-14.25,3.428l-10.363-3.737l-13.809,8.025l6.486,5.991
					c-2.695,2.605-4.661,5.387-5.871,8.265l-11.873,1.596l0.073,11.346l11.881,1.602c1.242,2.867,3.23,5.654,5.955,8.26l-6.41,5.996
					l13.89,8.019l10.33-3.732c4.507,1.57,9.325,2.712,14.288,3.428l2.795,6.871l19.588,0.005l0.849-0.504l1.869-6.378
					c4.964-0.71,9.77-1.853,14.259-3.422l10.363,3.737l13.809-8.025l-6.486-5.991c2.695-2.605,4.652-5.393,5.862-8.271l11.873-1.596
					l0.849-0.504l-0.922-10.842l-11.872-1.596c-1.251-2.872-3.24-5.659-5.964-8.265L259.292,364.322z"/>
			</g>
			<g>
				<path style="fill:#E88BB5;" d="M260.141,363.818l-13.89-8.02l-10.33,3.732c-4.507-1.57-9.325-2.712-14.279-3.422l-2.804-6.877
					l-19.588-0.005l-2.717,6.882c-4.964,0.71-9.76,1.858-14.25,3.428l-10.363-3.737l-13.809,8.025l6.486,5.991
					c-2.695,2.606-4.661,5.387-5.871,8.265l-11.873,1.596l0.073,11.346l11.881,1.602c1.242,2.867,3.23,5.654,5.955,8.26l-6.41,5.996
					l13.89,8.019l10.33-3.732c4.507,1.57,9.325,2.712,14.288,3.428l2.795,6.871l19.587,0.005l2.717-6.882
					c4.964-0.71,9.77-1.853,14.259-3.422l10.363,3.737l13.809-8.025l-6.486-5.991c2.695-2.606,4.652-5.393,5.862-8.271l11.873-1.596
					l-0.073-11.346l-11.872-1.596c-1.251-2.872-3.24-5.659-5.964-8.265L260.141,363.818z"/>
			</g>
			<polygon style="fill:#D670A3;" points="260.141,363.818 260.141,359.762 253.732,365.758 253.732,369.814 			"/>
			<polygon style="fill:#D670A3;" points="158.111,359.768 158.111,363.824 164.597,369.815 164.597,365.758 			"/>
			<g>
				<path style="fill:#F49DC0;" d="M260.141,359.762l-13.89-8.019l-10.33,3.732c-4.507-1.57-9.325-2.712-14.279-3.422l-2.804-6.877
					l-19.588-0.005l-2.717,6.882c-4.964,0.71-9.76,1.858-14.25,3.428l-10.363-3.737l-13.809,8.025l6.486,5.991
					c-2.695,2.606-4.661,5.387-5.871,8.265l-11.873,1.596l0.073,11.346l11.881,1.602c1.242,2.867,3.23,5.654,5.955,8.26l-6.41,5.996
					l13.89,8.02l10.33-3.732c4.507,1.57,9.325,2.712,14.288,3.428l2.795,6.872l19.587,0.005l2.717-6.882
					c4.964-0.71,9.77-1.853,14.259-3.423l10.363,3.738l13.809-8.025l-6.486-5.991c2.695-2.606,4.652-5.393,5.862-8.271l11.873-1.596
					l-0.073-11.346l-11.872-1.596c-1.251-2.872-3.24-5.66-5.964-8.265L260.141,359.762z"/>
			</g>
			<polygon style="fill:#D670A3;" points="172.243,414.899 172.243,410.843 182.574,407.111 182.574,411.167 			"/>
			<polygon style="fill:#D670A3;" points="199.657,417.41 199.657,421.466 196.862,414.595 196.862,410.538 			"/>
			<polygon style="fill:#D670A3;" points="219.244,421.471 219.244,417.415 221.962,410.533 221.962,414.589 			"/>
			<polygon style="fill:#D670A3;" points="246.584,414.904 246.584,410.848 236.22,407.11 236.22,411.167 			"/>
			<polygon style="fill:#D670A3;" points="259.769,392.618 259.769,388.562 271.641,386.965 271.641,391.021 			"/>
			<polygon style="fill:#D670A3;" points="158.807,392.624 158.807,388.568 146.926,386.966 146.926,391.022 			"/>
			<polygon style="fill:#E88BB5;" points="158.353,402.823 158.353,406.879 172.243,414.899 172.243,410.843 			"/>
			<polygon style="fill:#E88BB5;" points="260.393,406.879 260.393,402.823 246.584,410.848 246.584,414.904 			"/>
		</g>
		<g>
			<path style="fill:#43C4AB;" d="M191.809,246.413c0.425-5.281,0.829-10.564,1.217-15.848c0.375-5.103,0.886-10.227,0.859-15.348
				c-0.023-4.268-0.076-14.313-6.139-14.783c-3.747-0.291-5.218,5.337-6.044,8.027c-3.476,11.333-1.86,23.738-1.45,35.387
				c0.031,0.887-0.072,1.904,0.098,2.779l5.634,25.368c0,0,4.403,0.274,8.562-2.361L191.809,246.413z"/>
			<g style="opacity:0.15;">
				<path style="fill:#808080;" d="M184.982,365.457c12.595-7.272,32.954-7.276,45.474,0c12.513,7.272,12.44,19.064-0.155,26.336
					c-12.602,7.276-32.954,7.276-45.467,0.004C172.314,384.521,172.38,372.732,184.982,365.457"/>
			</g>
			<g>
				<path style="fill:#FFFFFF;" d="M229.201,377.529c-2.866,0.848-5.526,2.421-8.447,3.151c-2.562,0.834-5.163,1.452-7.767,2.132
					c-1.649,0.43-3.307,0.984-4.692,2.007c-0.625,0.462-0.516,1.433-0.455,2.115c0.103,1.141,1.623,1.699,2.533,2.008
					c1.262,0.429,2.621,0.612,3.945,0.411c1.788-0.271,3.23-1.181,4.729-2.115c1.378-0.859,2.781-1.681,4.234-2.406
					c1.417-0.706,2.913-1.187,4.35-1.843c1.371-0.626,2.419-1.587,2.554-3.15c0.035-0.403,0.068-0.815,0.005-1.217
					c-0.06-0.383-0.215-0.763-0.499-1.027c-0.061-0.056-0.131-0.109-0.214-0.12c-0.064-0.008-0.129,0.01-0.191,0.028
					C229.258,377.513,229.23,377.521,229.201,377.529z"/>
			</g>
			<path style="fill:#7798D9;" d="M225.956,375.243c-0.453-0.027-0.917-0.018-1.377,0.014c-1.122,0.079-2.231,0.268-3.35,0.376
				c-1.202,0.116-2.346,0.014-3.543-0.102c-0.37-0.036-0.741-0.066-1.113-0.072c-2.989-0.055-6.013,1.87-7.477,4.455
				c-0.009-0.005-0.016-0.013-0.026-0.008c-1.231,0.517-0.731,2.196-0.836,3.224c-0.075,0.734-0.424,1.487-0.363,2.227
				c0.05,0.607,0.47,0.999,0.944,1.331c1.795,1.258,4.244,1.729,6.375,1.131c1.655-0.465,3.044-1.456,4.528-2.295
				c1.845-1.043,3.712-2.111,5.684-2.891c1.023-0.404,2.107-0.719,3.03-1.341c1.196-0.805,2.124-2.198,1.486-3.641
				C229.16,375.936,227.625,375.344,225.956,375.243z"/>
			<path style="fill:#2B448C;" d="M223.907,377.421c-0.679-0.538-1.406-1.016-2.175-1.414c-0.263-0.136-0.536-0.241-0.805-0.357
				c-1.092,0.073-2.144-0.013-3.24-0.118c-0.37-0.036-0.741-0.066-1.113-0.072c-1.78-0.033-3.566,0.647-5.034,1.74
				c0.088,0.335,0.271,0.638,0.47,0.922c0.891,1.27,2.112,2.305,3.51,2.977c0.294,0.141,0.602,0.268,0.928,0.286
				c0.598,0.034,1.033-0.298,1.539-0.547c0.443-0.218,0.929-0.408,1.399-0.569c1.013-0.348,2.074-0.53,3.133-0.67
				c0.594-0.078,1.576-0.152,1.979-0.666C224.916,378.4,224.312,377.741,223.907,377.421z"/>
			<g>
				<path style="fill:#FFFFFF;" d="M207.293,366.796c-2.866,0.848-5.526,2.421-8.447,3.151c-2.561,0.835-5.163,1.452-7.766,2.132
					c-1.649,0.43-3.307,0.984-4.692,2.007c-0.625,0.462-0.516,1.433-0.455,2.115c0.103,1.141,1.623,1.699,2.533,2.008
					c1.262,0.429,2.621,0.612,3.945,0.411c1.788-0.271,3.23-1.181,4.729-2.115c1.378-0.859,2.781-1.681,4.234-2.406
					c1.417-0.706,2.913-1.187,4.35-1.843c1.371-0.626,2.419-1.587,2.554-3.15c0.035-0.403,0.068-0.815,0.005-1.217
					c-0.06-0.383-0.215-0.763-0.499-1.027c-0.061-0.056-0.131-0.109-0.213-0.12c-0.064-0.008-0.129,0.01-0.191,0.028
					C207.35,366.779,207.322,366.788,207.293,366.796z"/>
			</g>
			<path style="fill:#7798D9;" d="M204.048,364.509c-0.453-0.027-0.917-0.018-1.377,0.014c-1.122,0.079-2.231,0.268-3.35,0.376
				c-1.202,0.116-2.346,0.014-3.543-0.102c-0.37-0.036-0.741-0.065-1.113-0.072c-2.989-0.055-6.013,1.87-7.477,4.455
				c-0.009-0.005-0.016-0.013-0.026-0.008c-1.231,0.517-0.731,2.196-0.836,3.224c-0.075,0.734-0.423,1.487-0.363,2.227
				c0.05,0.607,0.47,0.999,0.944,1.331c1.795,1.258,4.244,1.729,6.375,1.131c1.655-0.465,3.044-1.456,4.528-2.294
				c1.845-1.043,3.712-2.111,5.684-2.891c1.023-0.404,2.107-0.719,3.03-1.341c1.196-0.805,2.124-2.198,1.486-3.641
				C207.252,365.203,205.717,364.61,204.048,364.509z"/>
			<path style="fill:#2B3D89;" d="M201.999,366.687c-0.679-0.538-1.406-1.016-2.175-1.414c-0.263-0.136-0.536-0.241-0.805-0.357
				c-1.092,0.073-2.144-0.013-3.24-0.118c-0.37-0.036-0.741-0.065-1.113-0.072c-1.78-0.033-3.566,0.647-5.034,1.74
				c0.088,0.335,0.271,0.638,0.47,0.922c0.891,1.27,2.112,2.305,3.51,2.977c0.294,0.141,0.602,0.268,0.928,0.286
				c0.598,0.034,1.033-0.298,1.539-0.547c0.443-0.218,0.929-0.408,1.399-0.569c1.013-0.348,2.074-0.53,3.133-0.67
				c0.594-0.078,1.576-0.152,1.979-0.666C203.008,367.666,202.404,367.008,201.999,366.687z"/>
			<path style="fill:#1D2540;" d="M183.52,273.045l4.143,95.787c-0.017,1.411,2.997,2.565,4.587,2.439
				c3.572-0.283,4.676-1.584,4.969-3.167l7.685-59.441l1.13-36.017L183.52,273.045z"/>
			<path style="fill:#121726;" d="M198.291,298.255c0,0,1.147,21.111,0.675,30.34c-0.38,7.42-3.127,30.829-4.976,39.578
				c-0.706,3.34-5.339,2.051-5.352,2.048c0.003,0.002,0.005,0.004,0.008,0.006l0.086,0.057c1.019,0.656,2.539,1.066,3.52,0.988
				c3.572-0.283,4.676-1.584,4.969-3.167l7.639-59.09L198.291,298.255z"/>
			<path style="fill:#1D2540;" d="M192.251,269.82c0,0,1.52,23.713,7.884,35.377l9.113,75.331c0.127,0.896,2.655,1.926,5.795,1.522
				c1.998-0.257,3.14-1.231,3.14-2.512l1.376-71.431l-0.218-38.95L192.251,269.82z"/>
			<path style="fill:#6AE2CB;" d="M219.33,269.159c-0.012-0.182-0.024-0.365-0.036-0.547c-0.631-9.56-0.803-19.094-1.116-28.663
				c-0.201-6.145-0.81-12.296-2.122-18.309c-0.698-3.199-3.922-16.237-5.048-17.229c-1.533-1.35-5.408-2.811-7.276-3.576
				c-2.022-0.829-4.101-1.546-6.253-1.951c-3.689-0.694-8.755-0.62-11.447,2.392c-1.805,2.019-2.979,4.531-3.761,7.104
				c-1.976,6.501-1.858,13.713-0.843,20.375c1.075,7.052,1.671,14.17,1.961,21.295c0.277,6.825,0.534,13.762-0.288,20.559
				c-0.363,3.003,0.58,4.776,3.381,6.045c9.936,4.502,20.714,6.302,31.325,2.917c0.855-0.273,1.649-0.624,1.932-1.554
				c0.375-1.237-0.011-2.837-0.095-4.099C219.539,272.331,219.435,270.745,219.33,269.159z"/>
			<path style="opacity:0.4;fill:#CCCCCC;" d="M219.33,269.159c-0.012-0.182-0.024-0.365-0.036-0.547
				c-0.631-9.56-0.803-19.094-1.116-28.663c-0.201-6.145-0.81-12.296-2.122-18.309c-0.424-1.945-1.782-7.524-3.035-11.824
				c0.473,3.975,0.269,8.103,0.269,12c0,6.934-0.125,13.868-0.318,20.799c-0.179,6.443-0.423,13.41-3.788,19.12
				c-2.985,5.065-8.23,7.928-13.961,8.717c-3.958,0.545-8.044,0.109-12.024-0.81c-0.034,0.322-0.06,0.646-0.098,0.968
				c-0.363,3.003,0.58,4.776,3.381,6.045c9.936,4.502,20.714,6.302,31.325,2.917c0.855-0.273,1.649-0.624,1.932-1.554
				c0.375-1.237-0.011-2.837-0.095-4.099C219.539,272.331,219.435,270.745,219.33,269.159z"/>
			<path style="fill:#F9CAAA;" d="M242.759,263.533c1.747,0.838,3.788,0.741,5.466-0.229c0.722-0.418,1.467-0.838,2.257-1.116
				c0.468-0.165,1.297-0.332,1.704,0.048c1.044,0.975-0.858,2.038-1.474,2.429c-1.046,0.663,0.501,1.242,1.033,1.43
				c0.84,0.296,1.713,0.49,2.59,0.642c0.66,0.114,1.61,0.094,1.879,0.861c0.124,0.354-0.028,0.802-0.369,0.957
				c0.26,0.266,0.525,0.539,0.683,0.876c0.157,0.337,0.189,0.757-0.015,1.068c-0.262,0.401-0.802,0.496-1.28,0.512
				c0,0,0.339,0.55,0.192,1.147c-0.138,0.561-1.015,0.602-1.61,0.599c0.009,0.188-0.135,0.356-0.307,0.432
				c-0.361,0.159-0.933,0.102-1.325,0.104c-1.663,0.005-3.283-0.469-4.802-1.113c-2.198-0.932-4.381-2.062-6.286-3.511
				c-0.012-0.009-0.139-0.09-0.136-0.105l0.897-5.464L242.759,263.533z"/>
			<path style="fill:#43C4AB;" d="M221.529,246.447c-1.679-1.552-2.535-3.265-2.675-6.437c-0.328-7.412-0.428-14.857-1.433-22.216
				c-0.578-4.228-1.937-14.181-8.01-13.86c-3.753,0.199-4.48,5.971-4.948,8.745c-1.295,7.67-0.349,15.488,0.959,23.088
				c1.198,6.955,1.269,14.081,7.431,18.562c8.647,6.288,18.414,11.459,28.191,15.762c1.707-2.502,3.499-4.946,5.371-7.327
				c-5.179-3.134-10.306-6.355-15.377-9.661c-2.197-1.432-4.352-2.918-6.518-4.393C223.326,247.898,222.333,247.191,221.529,246.447
				z"/>
			<path style="fill:#F9CAAA;" d="M213.434,171.566c0,0,4.262,17.611,0.272,20.691s-9.364,4.195-9.364,4.195l-0.167,4.57
				c0,0-7.008,0.424-11.925-2.497c0,0,1-5.079-1.302-9.645C190.948,188.88,190.995,160.777,213.434,171.566z"/>
			<path style="fill:#EAB794;" d="M213.659,172.553c-0.137-0.621-0.225-0.987-0.225-0.987
				c-22.439-10.789-22.486,17.314-22.486,17.314c1.153,2.288,1.477,4.703,1.514,6.545c1.551,0.138,3.136,0.045,4.654-0.161
				c0.017-0.002,0.034-0.005,0.051-0.007c2.421-0.332,4.828-1.192,6.363-3.189c0.797-1.037,1.416-2.257,1.801-3.506
				c0.168-0.544,0.267-1.104-0.072-1.6c-0.281-0.412-0.715-0.684-1.071-1.024c-0.568-0.543-1.061-1.185-1.236-1.966
				c-0.26-1.165,0.184-2.35,1.196-2.994c1.156-0.736,2.192-0.181,3.311,0.296c0.69,0.294,1.551,0.503,2.267,0.157
				c0.724-0.35,0.919-1.092,0.903-1.842c-0.026-1.193-0.243-2.381-0.126-3.577C210.705,173.977,212.103,173.226,213.659,172.553z"/>
			<path style="fill:#1D2540;" d="M209.424,182.018c-0.04,0.007-0.083,0.01-0.128,0.008c-0.727-0.025-1.227-1.546-1.805-1.951
				c-0.679-0.477-1.462-0.705-2.292-0.678c-3.813,0.122-4.333,7.062-0.293,7.503c0.151,0.016,0.319,0.029,0.424,0.139
				c0.095,0.099,0.111,0.248,0.114,0.386c0.072,3.178-2.413,5.238-5.278,6c-2.994,0.796-6.672,0.364-8.769-2.076
				c-1.974-2.298-3.616-4.881-4.858-7.644c-1.282-2.851-2.505-5.692-2.701-8.864c-0.22-3.559,1.064-7.07,3.115-9.94
				c1.243-1.74,2.833-3.189,4.562-4.434c1.681-1.21,3.917-2.05,5.14-3.771c0.723-1.016,1.072-2.267,1.931-3.19
				c0.774-0.831,1.871-1.32,2.995-1.482c1.843-0.267,3.807,0.225,5.412,1.136c0.73,0.414,1.417,0.634,2.093,0.013
				c0.606-0.557,0.953-1.305,1.678-1.739c0.798-0.478,1.778-0.597,2.683-0.42c3.901,0.763,5.927,5.307,5.772,8.91
				c-0.009,0.202-0.022,0.408,0.032,0.603c0.203,0.734,1.09,0.478,1.561,0.866c0.785,0.648,0.638,2.29,0.383,3.139
				c-0.34,1.133-1.079,2.12-1.888,2.964c-1.556,1.625-3.559,2.956-5.635,3.821c-1.775,0.739-3.327,1.757-3.513,3.843
				C210.039,176.512,211.748,181.621,209.424,182.018z"/>
			<path style="fill:#121726;" d="M221.195,164.53c0.255-0.849,0.402-2.491-0.383-3.139c-0.008-0.007-0.018-0.01-0.027-0.016
				c-0.97,3.405-3.696,5.99-7.14,7.182c-2.511,0.869-7.632,0.671-7.474,4.516c0.043,1.048,1.183,3.011-0.477,3.343
				c-0.583,0.117-1.082-0.366-1.664-0.387c-1.953-0.069-2.87,2.688-3.308,4.154c-0.554,1.857-1.171,3.686-2.888,4.78
				c-1.806,1.151-3.974,1.136-5.923,0.361c-2.32-0.924-4.044-2.809-5.387-4.858c-0.905-1.381-1.927-2.964-2.581-4.592
				c0.365,2.762,1.455,5.292,2.596,7.83c1.242,2.763,2.883,5.346,4.858,7.644c2.097,2.44,5.775,2.872,8.769,2.076
				c2.865-0.762,5.351-2.821,5.278-6c-0.003-0.137-0.019-0.287-0.114-0.386c-0.106-0.11-0.273-0.122-0.424-0.139
				c-4.04-0.442-3.52-7.382,0.293-7.503c0.83-0.026,1.613,0.202,2.292,0.678c0.578,0.406,1.078,1.926,1.805,1.951
				c0.046,0.002,0.088-0.001,0.128-0.008c2.324-0.397,0.615-5.506,0.736-6.861c0.186-2.086,1.738-3.104,3.513-3.843
				c2.076-0.865,4.079-2.196,5.635-3.821C220.115,166.65,220.854,165.663,221.195,164.53z"/>
			<path style="fill:#43C4AB;" d="M191.357,198.741l1.045-1.231c0,0,3.983,3.264,11.801,2.047l0.343,1.608
				C204.547,201.165,196.067,202.114,191.357,198.741z"/>
			<path style="fill:#121726;" d="M211.553,286.811c-0.052-0.109-0.203-0.195-0.324-0.186c-2.831,0.228-5.643,0.085-8.462-0.226
				c-1.05-0.116-2.145-0.201-3.178-0.407c-0.118-0.015-0.457-0.156-0.543-0.022c-0.039,0.061-0.037,0.139-0.033,0.211
				c0.026,0.405-0.015,0.818,0.016,1.228c0.016,0.214,0.059,0.492,0.255,0.622c0.224,0.147,0.64,0.146,0.903,0.192
				c2.767,0.48,5.564,0.809,8.374,0.891c0.744,0.022,1.476,0.009,2.219-0.036c0.231-0.014,0.463-0.032,0.693-0.052
				c0.246-0.021,0.398-0.177,0.422-0.422C211.963,287.961,211.832,287.391,211.553,286.811z"/>
			<path style="fill:#121726;" d="M189.354,283.593c-1.855-0.324-3.658-0.812-5.438-1.392l0.107,2.462
				c0.704,0.238,1.413,0.464,2.127,0.671c0.715,0.207,1.427,0.378,2.158,0.521c0.228,0.044,0.456,0.085,0.684,0.123
				c0.243,0.041,0.429-0.072,0.515-0.303c0.223-0.606,0.239-1.191,0.115-1.821C189.598,283.734,189.474,283.613,189.354,283.593z"/>
			<g>
				<path style="fill:#CADEFF;" d="M162.734,172.471l-9.022-5.209c-0.303-0.175-0.548-0.03-0.549,0.319
					c-0.001,0.349,0.242,0.77,0.546,0.945l9.022,5.209c0.303,0.175,0.553,0.039,0.555-0.31
					C163.286,173.076,163.038,172.646,162.734,172.471"/>
				<path style="fill:#CADEFF;" d="M166.514,177.509l-12.809-7.396c-0.303-0.175-0.548-0.036-0.549,0.313
					c-0.001,0.349,0.242,0.776,0.546,0.951l12.809,7.396c0.304,0.175,0.548,0.03,0.549-0.319
					C167.06,178.105,166.817,177.684,166.514,177.509"/>
				<path style="fill:#CADEFF;" d="M174.88,182.34l-5.478-3.163c-0.303-0.175-0.553-0.039-0.554,0.31
					c-0.001,0.349,0.247,0.779,0.551,0.954l5.478,3.163c0.303,0.175,0.553,0.033,0.554-0.316
					C175.432,182.939,175.184,182.515,174.88,182.34"/>
				<path style="fill:#CADEFF;" d="M158.264,175.603l-4.568-2.637c-0.303-0.175-0.548-0.036-0.549,0.313
					c-0.001,0.349,0.242,0.77,0.546,0.945l4.568,2.637c0.303,0.175,0.548,0.036,0.549-0.313
					C158.811,176.199,158.568,175.778,158.264,175.603"/>
				<path style="fill:#CADEFF;" d="M169.768,182.244l-9.114-5.262c-0.303-0.175-0.553-0.039-0.555,0.31
					c-0.001,0.349,0.247,0.773,0.551,0.948l9.114,5.262c0.303,0.175,0.548,0.036,0.549-0.313
					C170.314,182.84,170.071,182.419,169.768,182.244"/>
				<path style="fill:#CADEFF;" d="M161.475,180.306l-7.786-4.495c-0.303-0.175-0.548-0.03-0.549,0.319
					c-0.001,0.349,0.242,0.77,0.545,0.945l7.787,4.496c0.303,0.175,0.548,0.036,0.549-0.313
					C162.021,180.909,161.778,180.482,161.475,180.306"/>
				<path style="fill:#CADEFF;" d="M166.498,183.206l-2.563-1.48c-0.303-0.175-0.548-0.03-0.549,0.319
					c-0.001,0.349,0.242,0.77,0.546,0.945l2.563,1.48c0.303,0.175,0.548,0.036,0.549-0.313
					C167.044,183.809,166.801,183.382,166.498,183.206"/>
				<path style="fill:#CADEFF;" d="M171.886,177.755l-7.212-4.164c-0.303-0.175-0.548-0.03-0.549,0.319
					c-0.001,0.349,0.242,0.77,0.545,0.945l7.212,4.164c0.303,0.175,0.553,0.039,0.554-0.31
					C172.438,178.36,172.19,177.93,171.886,177.755"/>
				<path style="fill:#2B448C;" d="M166.769,169.68l-12.674-7.317c-0.504-0.291-0.917-0.055-0.919,0.53
					c-0.002,0.579,0.409,1.29,0.913,1.581l12.674,7.317c0.509,0.294,0.923,0.059,0.924-0.521
					C167.689,170.685,167.279,169.974,166.769,169.68"/>
				<path style="fill:#2B448C;" d="M174.681,174.248l-4.747-2.741c-0.509-0.294-0.923-0.059-0.924,0.527
					c-0.002,0.579,0.409,1.29,0.918,1.584l4.747,2.74c0.509,0.294,0.922,0.059,0.924-0.52
					C175.6,175.253,175.19,174.542,174.681,174.248"/>
			</g>
			<g>
				<path style="fill:#F49DC0;" d="M155.656,149.952c-0.401-0.232-0.725-0.793-0.724-1.253l0.038-13.374
					c0.001-0.461,0.327-0.647,0.728-0.415l16.895,9.754c0.401,0.231,0.725,0.793,0.724,1.254l-0.038,13.374
					c-0.001,0.461-0.327,0.647-0.728,0.415l-10.035-5.794c-0.509-0.294-0.992-0.348-1.356-0.147l-2.924,1.598l0.005-1.7
					c0.003-1.22-0.861-2.717-1.923-3.33L155.656,149.952 M172.598,143.282l-16.895-9.755c-1.062-0.613-1.932-0.117-1.935,1.103
					l-0.038,13.374c-0.003,1.22,0.861,2.717,1.923,3.33l0.661,0.382c0.401,0.232,0.725,0.793,0.724,1.254l-0.005,1.837
					c-0.001,0.535,0.273,1.174,0.706,1.636c0.141,0.15,0.292,0.269,0.444,0.356c0.298,0.172,0.586,0.207,0.808,0.086l3.011-1.648
					c0.136-0.071,0.32-0.052,0.51,0.057l10.035,5.794c1.062,0.613,1.932,0.117,1.935-1.103l0.038-13.374
					C174.524,145.391,173.66,143.895,172.598,143.282"/>
				<path style="fill:#F49DC0;" d="M158.971,142.655c-0.872-0.504-1.585-0.098-1.587,0.905c-0.003,1.003,0.705,2.228,1.577,2.732
					c0.872,0.504,1.579,0.095,1.582-0.908C160.546,144.381,159.844,143.159,158.971,142.655"/>
				<path style="fill:#F49DC0;" d="M164.13,145.633c-0.872-0.504-1.585-0.098-1.587,0.905c-0.003,1.002,0.705,2.228,1.577,2.732
					c0.872,0.504,1.585,0.098,1.587-0.905C165.71,147.362,165.002,146.137,164.13,145.633"/>
				<path style="fill:#F49DC0;" d="M169.288,148.611c-0.872-0.504-1.585-0.098-1.587,0.905c-0.003,1.002,0.705,2.228,1.577,2.732
					c0.872,0.504,1.585,0.098,1.587-0.905C170.868,150.341,170.161,149.115,169.288,148.611"/>
			</g>
		</g>
	</g>
	<g>
		<g>
			<polygon style="fill:#CADEFF;" points="257.839,151.048 255.348,152.468 252.856,153.888 250.387,149.604 247.911,145.316 
				245.419,146.736 242.934,148.16 240.442,149.572 242.918,153.86 245.403,152.436 247.895,151.024 250.371,155.304 
				252.84,159.589 255.331,158.169 257.823,156.756 260.309,155.332 			"/>
		</g>
		<g>
			<g>
				<polygon style="fill:#FFFFFF;" points="459.57,162.676 457.078,164.096 454.586,165.516 452.117,161.232 449.642,156.944 
					447.15,158.364 444.665,159.788 442.173,161.2 444.649,165.488 447.134,164.064 449.626,162.652 452.101,166.932 
					454.57,171.216 457.062,169.796 459.554,168.384 462.039,166.96 				"/>
			</g>
		</g>
		<g>
			<polygon style="fill:#F49DC0;" points="361.514,66.617 359.022,68.037 356.531,69.457 354.061,65.173 351.586,60.885 
				349.094,62.305 346.609,63.729 344.117,65.141 346.593,69.429 349.078,68.005 351.57,66.593 354.045,70.873 356.514,75.157 
				359.006,73.737 361.498,72.325 363.983,70.901 			"/>
		</g>
		<g>
			<polygon style="fill:#3A5EA5;" points="504.622,120.997 502.13,122.416 499.638,123.837 497.169,119.552 494.693,115.265 
				492.202,116.685 489.716,118.108 487.225,119.521 489.7,123.809 492.186,122.385 494.677,120.972 497.153,125.253 
				499.622,129.537 502.114,128.117 504.605,126.704 507.091,125.281 			"/>
		</g>
		<g>
			<polygon style="fill:#6AE2CB;" points="529.507,297.629 527.015,299.049 524.523,300.469 522.054,296.185 519.579,291.897 
				517.087,293.317 514.602,294.741 512.11,296.153 514.585,300.441 517.071,299.017 519.562,297.605 522.038,301.885 
				524.507,306.169 526.999,304.75 529.49,303.337 531.976,301.913 			"/>
		</g>
		<g>
			<path style="fill:#F49DC0;" d="M267.661,171.669c0.533,0,1.168,0.204,1.836,0.59c2.716,1.568,5.003,5.527,4.994,8.646
				c-0.002,0.779-0.172,2.589-1.696,2.589c-0.533,0-1.168-0.204-1.835-0.589c-2.716-1.568-5.003-5.527-4.994-8.646
				C265.969,173.48,266.138,171.669,267.661,171.669 M267.661,170.169c-1.888,0-3.188,1.495-3.195,4.085
				c-0.01,3.657,2.562,8.112,5.744,9.949c0.929,0.536,1.807,0.79,2.585,0.79c1.889,0,3.189-1.496,3.196-4.085
				c0.01-3.659-2.562-8.112-5.744-9.949C269.319,170.423,268.44,170.169,267.661,170.169L267.661,170.169z"/>
		</g>
		<g>
			<path style="fill:#6AE2CB;" d="M410.026,58.897c0.533,0,1.168,0.204,1.836,0.59c2.716,1.568,5.003,5.527,4.994,8.646
				c-0.002,0.779-0.172,2.589-1.696,2.589c-0.533,0-1.168-0.204-1.836-0.589c-2.716-1.568-5.003-5.527-4.994-8.646
				C408.333,60.708,408.502,58.897,410.026,58.897 M410.026,57.397c-1.888,0-3.188,1.495-3.195,4.085
				c-0.01,3.657,2.562,8.112,5.744,9.949c0.929,0.536,1.807,0.79,2.586,0.79c1.889,0,3.189-1.495,3.196-4.085
				c0.01-3.659-2.562-8.112-5.744-9.949C411.683,57.652,410.804,57.397,410.026,57.397L410.026,57.397z"/>
		</g>
		<g>
			<path style="fill:#CADEFF;" d="M473.396,199.794c0.461,0,1.01,0.176,1.588,0.51c2.349,1.356,4.327,4.781,4.319,7.478
				c-0.002,0.673-0.149,2.239-1.467,2.239c-0.461,0-1.01-0.176-1.588-0.51c-2.349-1.356-4.327-4.781-4.319-7.478
				C471.932,201.36,472.079,199.794,473.396,199.794 M473.396,198.497c-1.633,0-2.757,1.293-2.763,3.534
				c-0.009,3.163,2.215,7.015,4.968,8.605c0.803,0.464,1.563,0.684,2.236,0.684c1.633,0,2.758-1.294,2.764-3.533
				c0.009-3.165-2.215-7.016-4.968-8.605C474.83,198.717,474.07,198.497,473.396,198.497L473.396,198.497z"/>
		</g>
		<g>
			<path style="fill:#CADEFF;" d="M548.274,223.988c0.461,0,1.01,0.176,1.588,0.51c2.349,1.356,4.327,4.781,4.319,7.478
				c-0.002,0.673-0.149,2.24-1.467,2.24c-0.461,0-1.01-0.176-1.588-0.51c-2.349-1.356-4.327-4.781-4.319-7.478
				C546.81,225.554,546.957,223.988,548.274,223.988 M548.274,222.691c-1.633,0-2.757,1.293-2.763,3.534
				c-0.009,3.163,2.215,7.015,4.968,8.605c0.803,0.464,1.563,0.684,2.236,0.684c1.633,0,2.758-1.294,2.764-3.533
				c0.009-3.165-2.215-7.016-4.968-8.605C549.708,222.911,548.948,222.691,548.274,222.691L548.274,222.691z"/>
		</g>
	</g>
</g>
</svg>
